<svg width="40" height="40" viewBox="0 0 40 40" fill="none" xmlns="http://www.w3.org/2000/svg">
<path d="M34.7731 22.8075L33.1774 21.2119C33.0801 21.1145 32.948 21.0598 32.8103 21.0598C32.6726 21.0598 32.5406 21.1145 32.4432 21.2119L32.2339 21.4211L30.7605 19.9477V17.0663C30.7605 16.8393 30.6131 16.6388 30.3967 16.5709L21.2887 13.7154C21.1042 13.6576 20.9029 13.707 20.7663 13.8437C20.6297 13.9804 20.5802 14.1817 20.6381 14.3662L23.4934 23.4742C23.5613 23.6907 23.762 23.838 23.9888 23.838H26.8703L28.3437 25.3115L28.1344 25.5207C28.037 25.6182 27.9823 25.7502 27.9823 25.8878C27.9823 26.0256 28.037 26.1576 28.1344 26.2549L29.7301 27.8506C29.8314 27.952 29.9643 28.0027 30.0972 28.0027C30.2301 28.0027 30.3629 27.952 30.4643 27.8506L34.7731 23.5418C34.9759 23.339 34.9759 23.0103 34.7731 22.8075ZM27.0853 22.7997H24.3701L22.2613 16.0729L25.2674 19.0792C25.1424 19.3199 25.0754 19.5884 25.0754 19.8675C25.0754 20.3255 25.2538 20.756 25.5776 21.0798C25.9119 21.414 26.3509 21.5812 26.79 21.5812C27.229 21.5812 27.6681 21.414 28.0023 21.0798C28.6709 20.4113 28.6709 19.3237 28.0023 18.655C27.4618 18.1144 26.6474 18.0116 26.0019 18.3451L22.9954 15.3386L29.7222 17.4474V20.1626C29.7222 20.3003 29.7769 20.4324 29.8743 20.5297L31.4998 22.1551L29.0779 24.5771L27.4524 22.9516C27.355 22.8543 27.223 22.7997 27.0853 22.7997ZM26.7899 19.1916C26.9631 19.1916 27.1363 19.2575 27.2681 19.3894C27.5317 19.653 27.5317 20.0819 27.2681 20.3456C27.0044 20.6091 26.5757 20.6092 26.3117 20.3456C26.0482 20.0819 26.0482 19.653 26.3117 19.3894C26.4437 19.2575 26.6168 19.1916 26.7899 19.1916ZM30.0972 26.7492L29.2357 25.8878L32.8103 22.3132L33.6718 23.1746L30.0972 26.7492Z" fill="url(#paint0_linear_685_331)"/>
<path d="M25.3287 35.6637C24.349 35.6637 23.5195 36.317 23.2517 37.2106C19.3711 36.7979 15.7217 35.0704 12.9309 32.3134C10.1416 29.5581 8.36942 25.9333 7.90763 22.0625C8.7791 21.7813 9.41145 20.9627 9.41145 19.999C9.41145 19.0352 8.7791 18.2166 7.90763 17.9353C8.36932 14.0645 10.1416 10.4397 12.9309 7.68438C15.7216 4.92765 19.3707 3.20011 23.2511 2.78732C23.5182 3.682 24.3483 4.33626 25.3287 4.33626C26.5242 4.33626 27.4968 3.3636 27.4968 2.16808C27.4968 0.972559 26.5242 0 25.3287 0C24.312 0 23.457 0.703531 23.2237 1.64919H12.8873V1.22696C12.8873 0.940181 12.6549 0.707779 12.3681 0.707779H10.4859C10.1991 0.707779 9.96669 0.940181 9.96669 1.22696V3.10921C9.96669 3.39598 10.1991 3.62838 10.4859 3.62838H12.3681C12.6549 3.62838 12.8873 3.39598 12.8873 3.10921V2.68745H19.0141C16.4764 3.58005 14.1427 5.02771 12.2011 6.94564C10.1561 8.96571 8.62731 11.4272 7.71658 14.1108V10.1715H8.13824C8.42502 10.1715 8.65742 9.93911 8.65742 9.65234V7.77009C8.65742 7.48332 8.42502 7.25091 8.13824 7.25091H6.25599C5.96922 7.25091 5.73682 7.48332 5.73682 7.77009V9.65234C5.73682 9.93911 5.96922 10.1715 6.25599 10.1715H6.67822V17.9059C5.75588 18.1552 5.0752 18.9988 5.0752 19.9989C5.0752 20.9989 5.75598 21.8425 6.67822 22.0918V29.8262H6.25599C5.96922 29.8262 5.73682 30.0586 5.73682 30.3454V32.2276C5.73682 32.5144 5.96922 32.7468 6.25599 32.7468H8.13824C8.42502 32.7468 8.65742 32.5144 8.65742 32.2276V30.3454C8.65742 30.0586 8.42502 29.8262 8.13824 29.8262H7.71658V25.8868C8.6274 28.5705 10.1561 31.0319 12.2011 33.052C14.1446 34.9718 16.4811 36.4204 19.0218 37.3128H12.8873V36.8906C12.8873 36.6038 12.6549 36.3714 12.3681 36.3714H10.4859C10.1991 36.3714 9.96669 36.6038 9.96669 36.8906V38.7729C9.96669 39.0596 10.1991 39.292 10.4859 39.292H12.3681C12.6549 39.292 12.8873 39.0596 12.8873 38.7729V38.3511H23.2238C23.4572 39.2966 24.3121 39.9998 25.3287 39.9998C26.5242 39.9998 27.4968 39.0272 27.4968 37.8316C27.4968 36.6361 26.5242 35.6637 25.3287 35.6637ZM25.3287 1.03835C25.9517 1.03835 26.4585 1.54516 26.4585 2.16818C26.4585 2.79119 25.9517 3.298 25.3287 3.298C24.7056 3.298 24.1988 2.79119 24.1988 2.16818C24.1988 1.54516 24.7056 1.03835 25.3287 1.03835ZM6.11345 19.999C6.11345 19.3759 6.62027 18.8691 7.24328 18.8691C7.86629 18.8691 8.3731 19.3759 8.3731 19.999C8.3731 20.622 7.86629 21.1288 7.24328 21.1288C6.62027 21.1288 6.11345 20.6219 6.11345 19.999ZM25.3287 38.9616C24.7056 38.9616 24.1988 38.4548 24.1988 37.8318C24.1988 37.2088 24.7056 36.702 25.3287 36.702C25.9517 36.702 26.4585 37.2088 26.4585 37.8318C26.4585 38.4548 25.9516 38.9616 25.3287 38.9616Z" fill="url(#paint1_linear_685_331)"/>
<defs>
<linearGradient id="paint0_linear_685_331" x1="20.6143" y1="13.6917" x2="34.9253" y2="28.0026" gradientUnits="userSpaceOnUse">
<stop stop-color="#FF6EFF"/>
<stop offset="1" stop-color="#0AB7F6"/>
</linearGradient>
<linearGradient id="paint1_linear_685_331" x1="5.0752" y1="0" x2="39.1971" y2="19.1268" gradientUnits="userSpaceOnUse">
<stop stop-color="#FF6EFF"/>
<stop offset="1" stop-color="#0AB7F6"/>
</linearGradient>
</defs>
</svg>
