<svg width="40" height="40" viewBox="0 0 40 40" fill="none" xmlns="http://www.w3.org/2000/svg">
<path d="M21.9792 11.1517L25.3519 4.49591L23.9391 11.8305L23.6382 13.3929L24.7787 12.2835L30.1216 7.08629L26.4101 13.5645L25.6213 14.9413L27.0569 14.2654L33.8017 11.0899L28.1888 16.0107L26.9974 17.0552L28.5726 16.8837L35.9846 16.0767L29.0834 18.9016L27.6186 19.5012L29.162 19.8519L36.4337 21.5041L28.9884 21.9284L27.4072 22.0185L28.7536 22.8526L35.0971 26.7827L27.9257 24.7621L26.3995 24.3321L27.403 25.5598L32.1294 31.3421L25.9979 27.0934L24.6917 26.1883L25.2443 27.6783L27.8415 34.6805L23.4254 28.6719L22.482 27.3883L22.5227 28.9807L22.7133 36.4478L20.4771 29.3229L20 27.803L19.5229 29.3229L17.2867 36.4478L17.4773 28.9807L17.518 27.3883L16.5746 28.6719L12.1585 34.6805L14.7557 27.6783L15.3083 26.1883L14.0021 27.0934L7.87059 31.3421L12.597 25.5598L13.6005 24.3321L12.0743 24.7621L4.90289 26.7827L11.2465 22.8526L12.5928 22.0185L11.0116 21.9284L3.56633 21.5041L10.838 19.8519L12.3814 19.5012L10.9166 18.9016L4.0154 16.0767L11.4274 16.8837L13.0026 17.0552L11.8112 16.0107L6.19829 11.0899L12.9431 14.2654L14.3787 14.9413L13.5899 13.5645L9.87845 7.08629L15.2213 12.2835L16.3618 13.3929L16.0609 11.8305L14.6481 4.4959L18.0208 11.1517L18.7407 12.5724L18.962 10.9951L19.9997 3.59801L21.038 10.9952L21.2594 12.5722L21.9792 11.1517Z" fill="#202020" stroke="#0AB7F6"/>
</svg>
