<svg width="459" height="589" viewBox="0 0 459 589" fill="none" xmlns="http://www.w3.org/2000/svg">
<mask id="mask0_2408_5104" style="mask-type:alpha" maskUnits="userSpaceOnUse" x="0" y="0" width="459" height="589">
<rect opacity="0.2" width="459" height="589" rx="20" fill="#2D2C2C"/>
</mask>
<g mask="url(#mask0_2408_5104)">
<rect opacity="0.4" width="459" height="589" rx="20" fill="url(#paint0_linear_2408_5104)"/>
<line x1="-3" y1="6" x2="465" y2="6" stroke="#2D2C2C" stroke-width="4"/>
<line x1="-3" y1="14" x2="465" y2="14" stroke="#2D2C2C" stroke-width="4"/>
<line x1="-3" y1="22" x2="465" y2="22" stroke="#2D2C2C" stroke-width="4"/>
<line x1="-3" y1="30" x2="465" y2="30" stroke="#2D2C2C" stroke-width="4"/>
<line x1="-3" y1="38" x2="465" y2="38" stroke="#2D2C2C" stroke-width="4"/>
<line x1="-3" y1="46" x2="465" y2="46" stroke="#2D2C2C" stroke-width="4"/>
<line x1="-3" y1="54" x2="465" y2="54" stroke="#2D2C2C" stroke-width="4"/>
<line x1="-3" y1="62" x2="465" y2="62" stroke="#2D2C2C" stroke-width="4"/>
<line x1="-3" y1="70" x2="465" y2="70" stroke="#2D2C2C" stroke-width="4"/>
<line x1="-3" y1="78" x2="465" y2="78" stroke="#2D2C2C" stroke-width="4"/>
<line x1="-3" y1="86" x2="465" y2="86" stroke="#2D2C2C" stroke-width="4"/>
<line x1="-3" y1="94" x2="465" y2="94" stroke="#2D2C2C" stroke-width="4"/>
<line x1="-3" y1="102" x2="465" y2="102" stroke="#2D2C2C" stroke-width="4"/>
<line x1="-3" y1="110" x2="465" y2="110" stroke="#2D2C2C" stroke-width="4"/>
<line x1="-3" y1="118" x2="465" y2="118" stroke="#2D2C2C" stroke-width="4"/>
<line x1="-3" y1="126" x2="465" y2="126" stroke="#2D2C2C" stroke-width="4"/>
<line x1="-3" y1="134" x2="465" y2="134" stroke="#2D2C2C" stroke-width="4"/>
<line x1="-3" y1="142" x2="465" y2="142" stroke="#2D2C2C" stroke-width="4"/>
<line x1="-3" y1="150" x2="465" y2="150" stroke="#2D2C2C" stroke-width="4"/>
<line x1="-3" y1="158.5" x2="465" y2="158.5" stroke="#2D2C2C" stroke-width="3"/>
<line x1="-3" y1="166" x2="465" y2="166" stroke="#2D2C2C" stroke-width="4"/>
<line x1="-3" y1="174" x2="465" y2="174" stroke="#2D2C2C" stroke-width="4"/>
<line x1="-3" y1="182" x2="465" y2="182" stroke="#2D2C2C" stroke-width="4"/>
<line x1="-3" y1="190" x2="465" y2="190" stroke="#2D2C2C" stroke-width="4"/>
<line x1="-3" y1="198" x2="465" y2="198" stroke="#2D2C2C" stroke-width="4"/>
<line x1="-3" y1="206" x2="465" y2="206" stroke="#2D2C2C" stroke-width="4"/>
<line x1="-3" y1="214" x2="465" y2="214" stroke="#2D2C2C" stroke-width="4"/>
<line x1="-3" y1="222" x2="465" y2="222" stroke="#2D2C2C" stroke-width="4"/>
<line x1="-3" y1="230" x2="465" y2="230" stroke="#2D2C2C" stroke-width="4"/>
<line x1="-3" y1="238" x2="465" y2="238" stroke="#2D2C2C" stroke-width="4"/>
<line x1="-3" y1="246" x2="465" y2="246" stroke="#2D2C2C" stroke-width="4"/>
<line x1="-3" y1="254" x2="465" y2="254" stroke="#2D2C2C" stroke-width="4"/>
<line x1="-3" y1="262" x2="465" y2="262" stroke="#2D2C2C" stroke-width="4"/>
<line x1="-3" y1="270" x2="465" y2="270" stroke="#2D2C2C" stroke-width="4"/>
<line x1="-3" y1="278" x2="465" y2="278" stroke="#2D2C2C" stroke-width="4"/>
<line x1="-3" y1="286" x2="465" y2="286" stroke="#2D2C2C" stroke-width="4"/>
<line x1="-3" y1="293.5" x2="465" y2="293.5" stroke="#2D2C2C" stroke-width="5"/>
<line x1="-3" y1="301.5" x2="465" y2="301.5" stroke="#2D2C2C" stroke-width="5"/>
<line x1="-3" y1="309.5" x2="465" y2="309.5" stroke="#2D2C2C" stroke-width="5"/>
<line x1="-3" y1="317.5" x2="465" y2="317.5" stroke="#2D2C2C" stroke-width="5"/>
<line x1="-3" y1="325.5" x2="465" y2="325.5" stroke="#2D2C2C" stroke-width="5"/>
<line x1="-3" y1="333.5" x2="465" y2="333.5" stroke="#2D2C2C" stroke-width="5"/>
<line x1="-3" y1="341.5" x2="465" y2="341.5" stroke="#2D2C2C" stroke-width="5"/>
<line x1="-3" y1="349.5" x2="465" y2="349.5" stroke="#2D2C2C" stroke-width="5"/>
<line x1="-3" y1="357.5" x2="465" y2="357.5" stroke="#2D2C2C" stroke-width="5"/>
<line x1="-3" y1="365.5" x2="465" y2="365.5" stroke="#2D2C2C" stroke-width="5"/>
<line x1="-3" y1="373.5" x2="465" y2="373.5" stroke="#2D2C2C" stroke-width="5"/>
<line x1="-3" y1="381.5" x2="465" y2="381.5" stroke="#2D2C2C" stroke-width="5"/>
<line x1="-3" y1="389.5" x2="465" y2="389.5" stroke="#2D2C2C" stroke-width="5"/>
<line x1="-3" y1="397.5" x2="465" y2="397.5" stroke="#2D2C2C" stroke-width="5"/>
<line x1="-3" y1="405.5" x2="465" y2="405.5" stroke="#2D2C2C" stroke-width="5"/>
<line x1="-3" y1="413.5" x2="465" y2="413.5" stroke="#2D2C2C" stroke-width="5"/>
<line x1="-3" y1="421.5" x2="465" y2="421.5" stroke="#2D2C2C" stroke-width="5"/>
<line x1="-3" y1="429.5" x2="465" y2="429.5" stroke="#2D2C2C" stroke-width="5"/>
<line x1="-3" y1="437.5" x2="465" y2="437.5" stroke="#2D2C2C" stroke-width="5"/>
<line x1="-3" y1="446.5" x2="465" y2="446.5" stroke="#2D2C2C" stroke-width="7"/>
<line x1="-3" y1="456.5" x2="465" y2="456.5" stroke="#2D2C2C" stroke-width="7"/>
<line x1="-3" y1="466.5" x2="465" y2="466.5" stroke="#2D2C2C" stroke-width="7"/>
<line x1="-3" y1="476.5" x2="465" y2="476.5" stroke="#2D2C2C" stroke-width="7"/>
<line x1="-3" y1="486.5" x2="465" y2="486.5" stroke="#2D2C2C" stroke-width="7"/>
<line x1="-3" y1="496.5" x2="465" y2="496.5" stroke="#2D2C2C" stroke-width="7"/>
<line x1="-3" y1="506.5" x2="465" y2="506.5" stroke="#2D2C2C" stroke-width="7"/>
<line x1="-3" y1="516.5" x2="465" y2="516.5" stroke="#2D2C2C" stroke-width="7"/>
<line x1="-3" y1="526.5" x2="465" y2="526.5" stroke="#2D2C2C" stroke-width="7"/>
<line x1="-3" y1="536.5" x2="465" y2="536.5" stroke="#2D2C2C" stroke-width="7"/>
<line x1="-3" y1="546.5" x2="465" y2="546.5" stroke="#2D2C2C" stroke-width="7"/>
<line x1="-3" y1="556.5" x2="465" y2="556.5" stroke="#2D2C2C" stroke-width="7"/>
<line x1="-3" y1="566.5" x2="465" y2="566.5" stroke="#2D2C2C" stroke-width="7"/>
<line x1="-3" y1="576.5" x2="465" y2="576.5" stroke="#2D2C2C" stroke-width="7"/>
<line x1="-3" y1="586.5" x2="465" y2="586.5" stroke="#2D2C2C" stroke-width="7"/>
</g>
<defs>
<linearGradient id="paint0_linear_2408_5104" x1="0" y1="0" x2="571.148" y2="445.088" gradientUnits="userSpaceOnUse">
<stop stop-color="#FF6EFF"/>
<stop offset="1" stop-color="#0AB7F6"/>
</linearGradient>
</defs>
</svg>
