<svg width="41" height="40" viewBox="0 0 41 40" fill="none" xmlns="http://www.w3.org/2000/svg">
<g clip-path="url(#clip0_685_327)">
<path d="M15.7324 25.5101H15.203L15.5773 25.1357C16.525 24.1875 16.525 22.6449 15.5773 21.6968C15.5743 21.6939 15.5713 21.691 15.5683 21.688C14.6195 20.7486 13.0834 20.7516 12.138 21.6968L11.7637 22.071V21.5419C11.7637 20.201 10.6728 19.11 9.33189 19.11C7.99092 19.11 6.89997 20.2009 6.89997 21.5419V22.0709L6.52578 21.6967C5.57758 20.7488 4.03483 20.749 3.08671 21.6968C2.13878 22.645 2.13869 24.1878 3.08671 25.136L3.46081 25.5102H2.93166C1.59087 25.5101 0.5 26.6011 0.5 27.9419C0.5 29.2828 1.59087 30.3738 2.93184 30.3738H3.46099L3.08671 30.7481C2.13869 31.6961 2.13869 33.2388 3.08663 34.187C3.09017 34.1906 3.09379 34.1941 3.09742 34.1977C4.04625 35.135 5.58112 35.1317 6.52596 34.1872L6.90006 33.8131V34.3423C6.90006 35.6831 7.9911 36.774 9.33207 36.774C10.6729 36.774 11.7637 35.6832 11.7637 34.3423V33.813L12.138 34.1873C13.0863 35.1352 14.6291 35.1352 15.5772 34.187C16.5252 33.2389 16.5252 31.6962 15.5772 30.7481L15.2028 30.3738H15.7323C17.0731 30.3738 18.164 29.2828 18.164 27.9419C18.1641 26.601 17.0733 25.5101 15.7324 25.5101ZM15.7324 28.7808H14.3085C13.9642 28.7808 13.6589 29.0019 13.5516 29.3291C13.4826 29.5396 13.3968 29.7467 13.2965 29.9447C13.1409 30.252 13.2005 30.6243 13.4439 30.8678L14.4508 31.8746C14.7778 32.2016 14.7778 32.7338 14.4508 33.0608C14.1237 33.3878 13.5915 33.3878 13.2644 33.0608L12.2577 32.054C12.0143 31.8106 11.6422 31.751 11.335 31.9064C11.1366 32.0068 10.9294 32.0927 10.7191 32.1617C10.392 32.269 10.1709 32.5743 10.1709 32.9185V34.3424C10.1709 34.8049 9.79458 35.1811 9.33207 35.1811C8.86947 35.1811 8.49317 34.8049 8.49317 34.3424V32.9185C8.49317 32.5743 8.27218 32.2691 7.94526 32.1617C7.73453 32.0925 7.52727 32.0066 7.3292 31.9064C7.21503 31.8487 7.09202 31.8206 6.96988 31.8206C6.76332 31.8206 6.55941 31.9009 6.40649 32.0539L5.39978 33.0606C5.07268 33.3876 4.54044 33.3878 4.21342 33.0607C4.21139 33.0587 4.20944 33.0567 4.20741 33.0548C3.88632 32.7271 3.88827 32.1995 4.21325 31.8745L5.22021 30.8674C5.46368 30.6239 5.52315 30.2514 5.36748 29.9442C5.26792 29.7475 5.18198 29.5404 5.11233 29.3285C5.00489 29.0017 4.69974 28.7808 4.35565 28.7808H2.93184C2.46933 28.7808 2.09302 28.4044 2.09302 27.9419C2.09302 27.4793 2.46924 27.1031 2.93184 27.1031H4.35565C4.69956 27.1031 5.00463 26.8824 5.11224 26.5557C5.18189 26.3441 5.26783 26.1368 5.36775 25.9394C5.52315 25.6322 5.46368 25.2599 5.2203 25.0165L4.21351 24.0096C3.88641 23.6825 3.88641 23.1501 4.21342 22.8231C4.54052 22.4964 5.07259 22.4962 5.39961 22.8231L6.40657 23.8302C6.65004 24.0736 7.02237 24.1332 7.32964 23.9775C7.52665 23.8778 7.73383 23.7919 7.94543 23.7224C8.27227 23.6149 8.49317 23.3098 8.49317 22.9657V21.5417C8.49317 21.0792 8.86956 20.7029 9.33216 20.7029C9.79458 20.7029 10.1708 21.0792 10.1708 21.5417V22.9655C10.1708 23.3096 10.3917 23.6148 10.7185 23.7222C10.9294 23.7915 11.1367 23.8775 11.3345 23.9776C11.6416 24.1329 12.0139 24.0737 12.2574 23.8302L13.2644 22.8231C13.5916 22.4962 14.1237 22.496 14.4506 22.8229C14.4523 22.8247 14.454 22.8263 14.4557 22.828C14.7777 23.1554 14.7761 23.6841 14.4508 24.0094L13.4439 25.0164C13.2005 25.2599 13.1411 25.6322 13.2966 25.9394C13.3965 26.1368 13.4824 26.3441 13.5519 26.5554C13.6593 26.8822 13.9645 27.1031 14.3086 27.1031H15.7325C16.1949 27.1031 16.5711 27.4794 16.5711 27.942C16.571 28.4045 16.1948 28.7808 15.7324 28.7808ZM33.86 21.2012C33.4201 21.2012 33.0635 20.8447 33.0635 20.4047V11.2557C33.0635 10.8908 32.7667 10.594 32.4019 10.594H30.9435C30.5036 10.594 30.147 10.2374 30.147 9.79749C30.147 9.35755 30.5036 9.00098 30.9435 9.00098H32.4019C33.645 9.00098 34.6565 10.0125 34.6565 11.2557V20.4047C34.6565 20.8447 34.3 21.2012 33.86 21.2012ZM9.33216 25.3092C7.88038 25.3092 6.69925 26.4903 6.69925 27.9421C6.69925 29.3938 7.88038 30.5749 9.33216 30.5749C10.7839 30.5749 11.965 29.3938 11.965 27.9421C11.965 26.4903 10.7839 25.3092 9.33216 25.3092ZM9.33216 28.9819C8.75876 28.9819 8.29227 28.5154 8.29227 27.9421C8.29227 27.3688 8.75876 26.9022 9.33216 26.9022C9.90556 26.9022 10.372 27.3687 10.372 27.9421C10.372 28.5155 9.90547 28.9819 9.33216 28.9819ZM26.8715 0.680176H21.8146C21.3746 0.680176 21.018 1.03675 21.018 1.47669V34.9915C21.018 35.4315 21.3746 35.788 21.8146 35.788H26.8715C27.3115 35.788 27.668 35.4315 27.668 34.9915V1.47669C27.668 1.03675 27.3115 0.680176 26.8715 0.680176ZM26.075 34.195H22.6111V30.2021H23.6841C24.1241 30.2021 24.4807 29.8455 24.4807 29.4056C24.4807 28.9656 24.1241 28.6091 23.6841 28.6091H22.6111V24.6163H23.6841C24.1241 24.6163 24.4807 24.2598 24.4807 23.8198C24.4807 23.3799 24.1241 23.0233 23.6841 23.0233H22.6111V19.0307H23.6841C24.1241 19.0307 24.4807 18.6741 24.4807 18.2341C24.4807 17.7942 24.1241 17.4376 23.6841 17.4376H22.6111V13.4449H23.6841C24.1241 13.4449 24.4807 13.0883 24.4807 12.6484C24.4807 12.2084 24.1241 11.8519 23.6841 11.8519H22.6111V7.85905H23.6841C24.1241 7.85905 24.4807 7.50248 24.4807 7.06254C24.4807 6.6226 24.1241 6.26602 23.6841 6.26602H22.6111V2.2732H26.075V34.195ZM40.5 3.91331V32.5547C40.5 32.9947 40.1434 33.3512 39.7035 33.3512H35.0887C34.6487 33.3512 34.2922 32.9947 34.2922 32.5547C34.2922 32.1148 34.6487 31.7582 35.0887 31.7582H38.907V4.70982H30.5772C30.1373 4.70982 29.7807 4.35325 29.7807 3.91331C29.7807 3.47337 30.1373 3.11679 30.5772 3.11679H39.7035C40.1433 3.11679 40.5 3.47345 40.5 3.91331ZM31.7401 38.3821V38.5232C31.7401 38.9632 31.3835 39.3198 30.9435 39.3198C30.5036 39.3198 30.147 38.9632 30.147 38.5232V38.3821C30.147 37.9422 30.5036 37.5856 30.9435 37.5856C31.3835 37.5856 31.7401 37.9422 31.7401 38.3821ZM31.7401 12.7065V35.8011C31.7401 36.2411 31.3835 36.5976 30.9435 36.5976C30.5036 36.5976 30.147 36.2411 30.147 35.8011V12.7065C30.147 12.2666 30.5036 11.91 30.9435 11.91C31.3835 11.91 31.7401 12.2666 31.7401 12.7065ZM18.3631 3.11679C18.3631 3.11679 11.291 3.11706 11.2749 3.11794C11.0975 3.12715 10.9355 3.19432 10.8075 3.30088C10.8074 3.30097 10.8072 3.30114 10.807 3.30123C10.8067 3.30158 10.8062 3.30194 10.8059 3.3022C10.8055 3.30256 10.8052 3.30282 10.8048 3.30309C10.8046 3.30327 10.8045 3.30344 10.8043 3.30353C10.8038 3.30397 10.8033 3.30442 10.8028 3.30486V3.30495C10.7859 3.3192 3.62427 10.4795 3.62427 10.4795C3.48683 10.6166 3.39921 10.8035 3.39081 11.0109C3.39027 11.0238 3.39019 17.6953 3.39019 17.6953C3.39019 18.1352 3.74676 18.4918 4.1867 18.4918C4.62664 18.4918 4.98321 18.1352 4.98321 17.6953V11.84H11.3168C11.7567 11.84 12.1133 11.4834 12.1133 11.0435V4.70982H18.3631C18.803 4.70982 19.1596 4.35325 19.1596 3.91331C19.1596 3.47337 18.803 3.11679 18.3631 3.11679ZM10.5204 10.247H6.10974L10.5204 5.83626V10.247Z" fill="url(#paint0_linear_685_327)"/>
</g>
<defs>
<linearGradient id="paint0_linear_685_327" x1="0.5" y1="0.680176" x2="39.1165" y2="40.6562" gradientUnits="userSpaceOnUse">
<stop stop-color="#FF6EFF"/>
<stop offset="1" stop-color="#0AB7F6"/>
</linearGradient>
<clipPath id="clip0_685_327">
<rect width="40" height="40" fill="white" transform="translate(0.5)"/>
</clipPath>
</defs>
</svg>
