<svg width="41" height="40" viewBox="0 0 41 40" fill="none" xmlns="http://www.w3.org/2000/svg">
<g clip-path="url(#clip0_685_312)">
<path d="M39.9252 16.2039L36.4161 15.853C36.0358 14.3889 35.4552 12.989 34.6855 11.68L36.9201 8.9487C37.1277 8.69494 37.1094 8.32502 36.8774 8.09322L32.407 3.62274C32.1751 3.39095 31.8054 3.37235 31.5515 3.58009L28.8202 5.8147C27.5111 5.04494 26.1114 4.46431 24.6472 4.08407L24.2963 0.574923C24.2636 0.248516 23.989 0 23.6611 0H17.339C17.011 0 16.7365 0.248516 16.7039 0.574689L16.353 4.08384C14.8889 4.46415 13.4891 5.04478 12.1799 5.81447L9.44869 3.57985C9.19494 3.3722 8.82502 3.39056 8.59314 3.62251L4.12259 8.09315C3.89063 8.3251 3.87235 8.69487 4.07993 8.94862L6.31454 11.6799C5.54478 12.9889 4.96423 14.3887 4.58391 15.8529L1.07477 16.2038C0.748516 16.2365 0.5 16.5111 0.5 16.839V23.1612C0.5 23.4891 0.748516 23.7638 1.07484 23.7964L4.58399 24.1473C4.96431 25.6114 5.54485 27.0112 6.31462 28.3203L4.08001 31.0516C3.87243 31.3053 3.89071 31.6752 4.12266 31.907L8.59314 36.3775C8.8251 36.6095 9.19486 36.6279 9.44869 36.4202L12.1799 34.1856C13.4891 34.9553 14.8888 35.536 16.353 35.9162L16.7039 39.4253C16.7365 39.7515 17.011 40 17.339 40H23.6611C23.9891 40 24.2636 39.7515 24.2963 39.4253L24.6472 35.9162C26.1113 35.5359 27.5111 34.9552 28.8202 34.1856L31.5515 36.4202C31.8051 36.6278 32.1751 36.6094 32.407 36.3775L36.8775 31.907C37.1094 31.6751 37.1277 31.3053 36.9202 31.0516L34.6855 28.3203C35.4553 27.0113 36.0359 25.6115 36.4162 24.1473L39.9253 23.7964C40.2516 23.7638 40.5002 23.4891 40.5002 23.1612V16.839C40.5001 16.5111 40.2516 16.2365 39.9252 16.2039ZM39.2235 22.5836L35.8401 22.9219C35.5676 22.9492 35.3429 23.1471 35.2816 23.414C34.9052 25.0506 34.2603 26.6059 33.3647 28.0364C33.2194 28.2685 33.2383 28.5674 33.4117 28.7793L35.5663 31.4128L31.9127 35.0663L29.2793 32.9116C29.0675 32.7381 28.7685 32.7193 28.5364 32.8647C27.1057 33.7602 25.5505 34.4053 23.914 34.7817C23.6471 34.843 23.4491 35.0677 23.4218 35.3402L23.0834 38.7236H17.9165L17.5782 35.3402C17.5509 35.0677 17.353 34.843 17.086 34.7817C15.4496 34.4053 13.8943 33.7604 12.4636 32.8647C12.2316 32.7193 11.9326 32.7384 11.7207 32.9116L9.08728 35.0663L5.43368 31.4128L7.5883 28.7793C7.76166 28.5673 7.78064 28.2685 7.63533 28.0364C6.73978 26.6059 6.0947 25.0507 5.71845 23.414C5.65704 23.1471 5.43235 22.9491 5.15993 22.9219L1.77649 22.5835V17.4166L5.15993 17.0782C5.43235 17.051 5.65712 16.8531 5.71845 16.5861C6.09478 14.9496 6.7397 13.3943 7.63533 11.9637C7.78064 11.7316 7.76166 11.4327 7.5883 11.2208L5.43368 8.58729L9.08728 4.93376L11.7207 7.08846C11.9325 7.26189 12.2316 7.2808 12.4636 7.13541C13.8943 6.23986 15.4495 5.59478 17.086 5.21845C17.3529 5.15712 17.5509 4.93243 17.5782 4.65993L17.9166 1.27664H23.0835L23.4218 4.66009C23.4491 4.93251 23.647 5.15728 23.914 5.21861C25.5504 5.59494 27.1057 6.23986 28.5363 7.13557C28.7684 7.28096 29.0673 7.26197 29.2792 7.08861L31.9126 4.93384L35.5662 8.58737L33.4116 11.2209C33.2383 11.4328 33.2193 11.7317 33.3646 11.9638C34.2601 13.3943 34.9052 14.9495 35.2815 16.5862C35.3429 16.8531 35.5676 17.0511 35.84 17.0783L39.2234 17.4167V22.5836H39.2235Z" fill="url(#paint0_linear_685_312)"/>
<path d="M20.5001 13.4043C16.8632 13.4043 13.9043 16.3631 13.9043 20.0001C13.9043 23.6371 16.8632 26.5959 20.5001 26.5959C24.137 26.5959 27.0959 23.6371 27.0959 20.0001C27.0959 16.3631 24.137 13.4043 20.5001 13.4043ZM25.7796 19.3617H23.1128C23.0569 17.7456 22.7882 16.1302 22.2853 14.99C24.1499 15.6565 25.536 17.3356 25.7796 19.3617ZM18.7155 14.9898C18.2124 16.1301 17.9433 17.7453 17.8874 19.3618H15.2206C15.4641 17.3354 16.8506 15.6561 18.7155 14.9898ZM15.2206 20.6384H17.8874C17.9433 22.2549 18.2124 23.8701 18.7158 25.0104C16.8506 24.3442 15.4641 22.6649 15.2206 20.6384ZM21.2987 24.0108C20.9402 25.0864 20.572 25.3192 20.5 25.3192C20.4281 25.3192 20.0599 25.0864 19.7013 24.0108C19.3974 23.0988 19.211 21.9191 19.1644 20.6384H21.8356C21.7889 21.919 21.6027 23.0988 21.2987 24.0108ZM19.1646 19.3617C19.2113 18.081 19.3975 16.9013 19.7016 15.9893C20.06 14.9138 20.4282 14.6809 20.5002 14.6809C20.572 14.6809 20.9402 14.9137 21.2988 15.9893C21.6028 16.9013 21.7892 18.081 21.8358 19.3617H19.1646ZM22.285 25.0102C22.7881 23.87 23.057 22.2546 23.1128 20.6384H25.7796C25.536 22.6646 24.1498 24.3438 22.285 25.0102Z" fill="url(#paint1_linear_685_312)"/>
<path d="M20.5002 6.08521C17.0168 6.08521 13.6836 7.37865 11.1147 9.72733C8.56246 12.0606 6.97667 15.2339 6.64949 18.6627C6.61597 19.0136 6.87331 19.3253 7.22417 19.3588C7.57738 19.3925 7.88683 19.135 7.92027 18.784C8.54176 12.2723 13.9499 7.36177 20.5002 7.36177C27.4689 7.36177 33.1385 13.0313 33.1385 20.0001C33.1385 26.9689 27.4689 32.6384 20.5002 32.6384C13.9497 32.6384 8.5416 27.7278 7.92027 21.2159C7.88683 20.8649 7.57402 20.6077 7.22425 20.641C6.87324 20.6745 6.61597 20.9861 6.64941 21.3371C6.9766 24.766 8.56223 27.9394 11.1144 30.2728C13.6836 32.6215 17.0167 33.915 20.5001 33.915C28.1728 33.915 34.415 27.6728 34.415 20C34.415 12.3273 28.1729 6.08521 20.5002 6.08521Z" fill="url(#paint2_linear_685_312)"/>
<path d="M20.5004 10.8511C18.5315 10.8511 16.6551 11.4675 15.0745 12.6337C14.7907 12.843 14.7305 13.2426 14.9398 13.5263C15.1491 13.8101 15.5487 13.8704 15.8323 13.661C17.192 12.658 18.8062 12.1277 20.5005 12.1277C24.8414 12.1277 28.3728 15.6592 28.3728 20.0001C28.3728 24.3409 24.8414 27.8724 20.5005 27.8724C16.1596 27.8724 12.6281 24.3409 12.6281 20.0001C12.6281 18.3057 13.1584 16.6914 14.1616 15.3316C14.3709 15.0479 14.3106 14.6483 14.027 14.4391C13.7431 14.2298 13.3438 14.2901 13.1344 14.5737C11.968 16.1544 11.3516 18.0309 11.3516 20C11.3516 25.0448 15.4558 29.1489 20.5005 29.1489C25.5452 29.1489 29.6494 25.0448 29.6494 20C29.6494 14.9552 25.5451 10.8511 20.5004 10.8511Z" fill="url(#paint3_linear_685_312)"/>
</g>
<defs>
<linearGradient id="paint0_linear_685_312" x1="0.5" y1="0" x2="40.5" y2="40.0002" gradientUnits="userSpaceOnUse">
<stop stop-color="#FF6EFF"/>
<stop offset="1" stop-color="#0AB7F6"/>
</linearGradient>
<linearGradient id="paint1_linear_685_312" x1="13.9043" y1="13.4043" x2="27.0959" y2="26.5959" gradientUnits="userSpaceOnUse">
<stop stop-color="#FF6EFF"/>
<stop offset="1" stop-color="#0AB7F6"/>
</linearGradient>
<linearGradient id="paint2_linear_685_312" x1="6.64648" y1="6.08521" x2="34.4762" y2="33.8537" gradientUnits="userSpaceOnUse">
<stop stop-color="#FF6EFF"/>
<stop offset="1" stop-color="#0AB7F6"/>
</linearGradient>
<linearGradient id="paint3_linear_685_312" x1="11.3516" y1="10.8511" x2="29.6494" y2="29.1489" gradientUnits="userSpaceOnUse">
<stop stop-color="#FF6EFF"/>
<stop offset="1" stop-color="#0AB7F6"/>
</linearGradient>
<clipPath id="clip0_685_312">
<rect width="40" height="40" fill="white" transform="translate(0.5)"/>
</clipPath>
</defs>
</svg>
