<svg width="40" height="40" viewBox="0 0 40 40" fill="none" xmlns="http://www.w3.org/2000/svg">
<path d="M16.6667 10C14.0667 10 12 12.0667 12 14.6667V24H13.3333V14.6667C13.3333 12.8 14.8 11.3333 16.6667 11.3333H19.3333V14.6667H20.6667V11.3333H23.3333C25.2 11.3333 26.6667 12.8 26.6667 14.6667V24H28V14.6667C28 12.0667 25.9333 10 23.3333 10H16.6667Z" fill="url(#paint0_linear_685_337)"/>
<path d="M19.3333 9.33341H20.6667C22.5333 9.33341 24 7.86675 24 6.00008V4.00008C24 2.13341 22.5333 0.666748 20.6667 0.666748H19.3333C17.4667 0.666748 16 2.13341 16 4.00008V6.00008C16 7.86675 17.4667 9.33341 19.3333 9.33341ZM17.3333 4.00008C17.3333 2.86675 18.2 2.00008 19.3333 2.00008H20.6667C21.8 2.00008 22.6667 2.86675 22.6667 4.00008V6.00008C22.6667 7.13341 21.8 8.00008 20.6667 8.00008H19.3333C18.2 8.00008 17.3333 7.13341 17.3333 6.00008V4.00008Z" fill="url(#paint1_linear_685_337)"/>
<path d="M32 36.0002C32 34.8668 31.1333 34.0002 30 34.0002H28.6667V30.6668C28.6667 30.2668 28.4 30.0002 28 30.0002H24.6667V15.3335H23.3333V30.0002H20.6667V24.6668H19.3333V30.0002H16.6667V15.3335H15.3333V30.0002H12C11.6 30.0002 11.3333 30.2668 11.3333 30.6668V34.0002H10C8.86667 34.0002 8 34.8668 8 36.0002V38.0002H0V39.3335H8.66667H31.3333H40V38.0002H32V36.0002ZM9.33333 38.0002V36.0002C9.33333 35.6002 9.6 35.3335 10 35.3335H12H22V34.0002H12.6667V31.3335H27.3333V34.6668C27.3333 35.0668 27.6 35.3335 28 35.3335H30C30.4 35.3335 30.6667 35.6002 30.6667 36.0002V38.0002H9.33333Z" fill="url(#paint2_linear_685_337)"/>
<defs>
<linearGradient id="paint0_linear_685_337" x1="12" y1="10" x2="25.8761" y2="25.8584" gradientUnits="userSpaceOnUse">
<stop stop-color="#FF6EFF"/>
<stop offset="1" stop-color="#0AB7F6"/>
</linearGradient>
<linearGradient id="paint1_linear_685_337" x1="16" y1="0.666748" x2="24.639" y2="8.64119" gradientUnits="userSpaceOnUse">
<stop stop-color="#FF6EFF"/>
<stop offset="1" stop-color="#0AB7F6"/>
</linearGradient>
<linearGradient id="paint2_linear_685_337" x1="0" y1="15.3335" x2="21.1765" y2="50.6276" gradientUnits="userSpaceOnUse">
<stop stop-color="#FF6EFF"/>
<stop offset="1" stop-color="#0AB7F6"/>
</linearGradient>
</defs>
</svg>
