<svg width="205" height="47" viewBox="0 0 205 47" fill="none" xmlns="http://www.w3.org/2000/svg">
<path d="M34.008 22.352C34.008 25.648 35.96 28.16 39.288 28.16C42.584 28.16 44.536 25.648 44.536 22.352C44.536 19.072 42.584 16.56 39.288 16.56C35.96 16.56 34.008 19.072 34.008 22.352ZM35.32 22.352C35.32 19.664 36.616 17.68 39.288 17.68C41.944 17.68 43.224 19.664 43.224 22.352C43.224 25.056 41.944 27.04 39.288 27.04C36.616 27.04 35.32 25.056 35.32 22.352ZM49.6798 27.04C48.3038 27.04 47.6638 26.4 47.6638 24.736V20.048H46.3518V24.912C46.3518 27.12 47.5198 28.16 49.3278 28.16C51.0558 28.16 52.0638 27.152 52.3838 25.712H52.7518L52.5438 26.624V28H53.8398V20.048H52.5438V23.584C52.5438 25.712 51.3598 27.04 49.6798 27.04ZM55.9493 28H57.2613V21.024L61.4693 21.168V20.048L57.0533 19.904C56.3013 19.872 55.9493 20.24 55.9493 20.992V28ZM77.2843 25.152C77.2843 22.8 74.7243 22.192 72.5163 21.504C70.6603 20.928 69.6683 20.496 69.6683 19.312C69.6683 18.064 70.8043 17.68 72.3563 17.68C74.0843 17.68 75.5083 18.512 75.5083 20.432H76.8203C76.8203 18.592 75.6843 16.56 72.3563 16.56C69.5723 16.56 68.3563 17.616 68.3563 19.344C68.3563 21.344 69.9723 21.952 72.1963 22.624C73.9883 23.152 75.9722 23.504 75.9722 25.216C75.9722 26.576 74.8683 27.04 72.9483 27.04C70.5803 27.04 69.1562 26.448 69.1562 23.776H67.8443C67.8443 26.416 69.0123 28.16 72.9483 28.16C76.2763 28.16 77.2843 26.832 77.2843 25.152ZM82.2579 27.04C80.8819 27.04 80.2419 26.4 80.2419 24.736V20.048H78.9299V24.912C78.9299 27.12 80.0979 28.16 81.9059 28.16C83.6339 28.16 84.6419 27.152 84.9619 25.712H85.3299L85.1219 26.624V28H86.4179V20.048H85.1219V23.584C85.1219 25.712 83.9379 27.04 82.2579 27.04ZM88.5274 20.048V30.912H89.8394V26.832L89.6314 25.936H89.9994C90.3354 27.168 91.3914 28.16 93.2154 28.16C95.5194 28.16 97.0074 26.384 97.0074 24.032C97.0074 21.664 95.5194 19.888 93.2154 19.888C91.3914 19.888 90.3354 20.88 89.9994 22.128H89.6314L89.8394 21.216V20.048H88.5274ZM89.8394 24.032C89.8394 21.904 91.1994 21.008 92.8314 21.008C94.4794 21.008 95.6954 21.936 95.6954 24.032C95.6954 26.112 94.4794 27.04 92.8314 27.04C91.1994 27.04 89.8394 26.144 89.8394 24.032ZM98.5043 23.92C98.5043 26.208 99.7043 28.16 102.552 28.16C105.08 28.16 106.04 26.448 106.344 25.216H105.032C104.744 26.432 103.864 27.072 102.552 27.072C100.584 27.072 99.8643 25.776 99.7843 24.272H106.072V23.76C106.072 21.312 104.6 19.888 102.36 19.888C100.104 19.888 98.5043 21.36 98.5043 23.92ZM99.7843 23.28C99.7843 22 100.792 20.992 102.36 20.992C103.944 20.992 104.792 22 104.792 23.28H99.7843ZM108.152 28H109.464V21.024L113.672 21.168V20.048L109.256 19.904C108.504 19.872 108.152 20.24 108.152 20.992V28ZM115.215 20.048V30.912H116.527V26.832L116.319 25.936H116.687C117.023 27.168 118.079 28.16 119.903 28.16C122.207 28.16 123.695 26.384 123.695 24.032C123.695 21.664 122.207 19.888 119.903 19.888C118.079 19.888 117.023 20.88 116.687 22.128H116.319L116.527 21.216V20.048H115.215ZM116.527 24.032C116.527 21.904 117.887 21.008 119.519 21.008C121.167 21.008 122.383 21.936 122.383 24.032C122.383 26.112 121.167 27.04 119.519 27.04C117.887 27.04 116.527 26.144 116.527 24.032ZM125.192 24.016C125.192 26.336 126.856 28.16 129.4 28.16C131.928 28.16 133.576 26.336 133.576 24.016C133.576 21.712 131.928 19.888 129.4 19.888C126.856 19.888 125.192 21.712 125.192 24.016ZM126.504 24.016C126.504 22.368 127.512 21.008 129.4 21.008C131.272 21.008 132.28 22.368 132.28 24.016C132.28 25.68 131.272 27.04 129.4 27.04C127.512 27.04 126.504 25.68 126.504 24.016ZM134.446 20.048L136.462 28H139.15L140.766 20.432H141.15L142.766 28H145.438L147.454 20.048H146.222L144.286 27.632H143.918L142.302 20.048H139.598L137.998 27.632H137.614L135.694 20.048H134.446ZM148.332 23.92C148.332 26.208 149.532 28.16 152.38 28.16C154.908 28.16 155.868 26.448 156.172 25.216H154.86C154.572 26.432 153.692 27.072 152.38 27.072C150.412 27.072 149.692 25.776 149.612 24.272H155.9V23.76C155.9 21.312 154.428 19.888 152.188 19.888C149.932 19.888 148.332 21.36 148.332 23.92ZM149.612 23.28C149.612 22 150.62 20.992 152.188 20.992C153.772 20.992 154.62 22 154.62 23.28H149.612ZM157.981 28H159.293V21.024L163.501 21.168V20.048L159.085 19.904C158.333 19.872 157.981 20.24 157.981 20.992V28ZM171.3 25.936C171.3 24.224 169.604 23.872 168.036 23.36C166.756 22.944 166.212 22.704 166.212 21.936C166.212 21.216 166.916 20.96 167.796 20.96C169.06 20.96 169.716 21.488 169.716 22.56H171.028C171.028 21.248 170.276 19.888 167.796 19.888C165.972 19.888 164.9 20.72 164.9 21.984C164.9 23.424 166.116 23.888 167.62 24.368C168.916 24.768 169.988 24.944 169.988 25.984C169.988 26.8 169.412 27.088 168.18 27.088C166.644 27.088 165.844 26.448 165.844 25.072H164.532C164.532 26.96 165.588 28.16 168.164 28.16C170.548 28.16 171.3 27.136 171.3 25.936Z" fill="#D3D3D3"/>
<path d="M16 1H189V-1H16V1ZM204 16V31H206V16H204ZM189 46H16V48H189V46ZM1 31V16H-1V31H1ZM16 46C7.71573 46 1 39.2843 1 31H-1C-1 40.3888 6.61116 48 16 48V46ZM204 31C204 39.2843 197.284 46 189 46V48C198.389 48 206 40.3888 206 31H204ZM189 1C197.284 1 204 7.71573 204 16H206C206 6.61116 198.389 -1 189 -1V1ZM16 -1C6.61116 -1 -1 6.61116 -1 16H1C1 7.71573 7.71573 1 16 1V-1Z" fill="url(#paint0_linear_1052_144)"/>
<defs>
<linearGradient id="paint0_linear_1052_144" x1="79.0254" y1="-8.1782e-06" x2="172.538" y2="105.353" gradientUnits="userSpaceOnUse">
<stop stop-color="#FF6EFF"/>
<stop offset="1" stop-color="#0AB7F6"/>
</linearGradient>
</defs>
</svg>
