<svg width="306" height="68" viewBox="0 0 306 68" fill="none" xmlns="http://www.w3.org/2000/svg">
<path d="M21.91 2.65H4.2V52H15.4V37.3H21.91C34.37 37.3 43.89 34.92 43.89 19.94C43.89 5.03 34.37 2.65 21.91 2.65ZM22.61 27.5H15.4V12.45H22.61C29.26 12.45 32.69 13.15 32.69 19.94C32.69 26.8 29.26 27.5 22.61 27.5ZM48.7703 52H59.9703V26.03L77.9603 26.45V16.65L54.7903 16.09C50.9403 16.02 48.7703 18.12 48.7703 21.97V52ZM80.798 34.29C80.798 46.68 89.618 52.7 100.748 52.7C111.808 52.7 120.628 46.68 120.628 34.29C120.628 21.97 111.808 15.95 100.748 15.95C89.618 15.95 80.798 21.97 80.798 34.29ZM91.998 34.29C91.998 28.41 95.428 25.75 100.748 25.75C105.998 25.75 109.428 28.41 109.428 34.29C109.428 40.24 105.998 42.9 100.748 42.9C95.428 42.9 91.998 40.24 91.998 34.29ZM135.758 13.15C139.888 13.15 142.478 11.19 142.478 7.55C142.478 3.98 139.888 1.95 135.758 1.95C131.628 1.95 129.178 3.98 129.178 7.55C129.178 11.19 131.628 13.15 135.758 13.15ZM122.038 66H134.638L141.078 54.66C141.988 52.98 142.268 51.72 142.268 49.9V21.97C142.268 18.12 140.098 16.02 136.248 16.16L122.038 16.65V26.45L130.648 26.03V49.06C130.648 50.88 130.368 52.35 129.458 53.82L122.038 66ZM147.038 33.87C147.038 43.88 153.268 52.7 166.848 52.7C179.098 52.7 184.908 44.65 185.608 39.54H174.408C173.708 42.2 170.768 43.6 166.848 43.6C160.478 43.6 157.538 40.73 157.538 36.67H184.348V33.17C184.348 22.46 176.648 15.95 165.658 15.95C154.668 15.95 147.038 22.67 147.038 33.87ZM157.538 30.37C157.538 27.71 159.428 25.05 165.658 25.05C171.888 25.05 173.848 27.71 173.848 30.37H157.538ZM189.079 34.29C189.079 46.12 197.129 52.7 208.399 52.7C218.059 52.7 226.879 47.45 227.369 37.37H216.169C215.749 40.52 212.879 42.9 208.399 42.9C203.079 42.9 200.279 39.75 200.279 34.29C200.279 28.9 203.079 25.75 208.399 25.75C212.879 25.75 215.749 28.13 216.169 31.28H227.369C226.879 21.2 218.059 15.95 208.399 15.95C197.129 15.95 189.079 22.53 189.079 34.29ZM248.347 42.9V26.45H259.967V16.65H248.347V6.5L237.147 10V16.65H228.747V26.45H237.147V46.75C237.147 50.6 239.247 52.84 243.097 52.7L261.367 52V42.2L248.347 42.9ZM299.943 42.27C299.943 34.92 293.643 33.17 286.783 30.93C281.183 29.11 277.683 28.06 277.683 26.38C277.683 24.98 279.153 24.35 281.813 24.35C285.663 24.35 287.553 26.24 287.553 28.76H298.753C298.753 21.9 293.853 15.95 281.883 15.95C272.153 15.95 266.483 19.59 266.483 25.89C266.483 33.8 274.533 35.55 281.113 37.72C286.783 39.61 288.743 40.1 288.743 41.92C288.743 43.6 286.853 44.3 283.843 44.3C277.963 44.3 276.073 41.92 276.073 39.19H264.873C264.873 47.45 270.473 52.7 283.493 52.7C295.673 52.7 299.943 48.22 299.943 42.27Z" fill="white"/>
<path d="M4.2 2.65V1.65H3.2V2.65H4.2ZM4.2 52H3.2V53H4.2V52ZM15.4 52V53H16.4V52H15.4ZM15.4 37.3V36.3H14.4V37.3H15.4ZM15.4 27.5H14.4V28.5H15.4V27.5ZM15.4 12.45V11.45H14.4V12.45H15.4ZM21.91 1.65H4.2V3.65H21.91V1.65ZM3.2 2.65V52H5.2V2.65H3.2ZM4.2 53H15.4V51H4.2V53ZM16.4 52V37.3H14.4V52H16.4ZM15.4 38.3H21.91V36.3H15.4V38.3ZM21.91 38.3C28.1488 38.3 33.9035 37.7169 38.1035 35.0849C42.4162 32.3823 44.89 27.663 44.89 19.94H42.89C42.89 27.197 40.6039 31.1577 37.0415 33.3901C33.3666 35.6931 28.1312 36.3 21.91 36.3V38.3ZM44.89 19.94C44.89 12.2501 42.4148 7.54852 38.1022 4.85554C33.9027 2.23319 28.149 1.65 21.91 1.65V3.65C28.131 3.65 33.3673 4.2568 37.0428 6.55196C40.6052 8.77648 42.89 12.7199 42.89 19.94H44.89ZM22.61 26.5H15.4V28.5H22.61V26.5ZM16.4 27.5V12.45H14.4V27.5H16.4ZM15.4 13.45H22.61V11.45H15.4V13.45ZM22.61 13.45C24.2641 13.45 25.669 13.4942 26.8551 13.6563C28.0423 13.8185 28.9441 14.0909 29.6254 14.5039C30.8773 15.2629 31.69 16.6958 31.69 19.94H33.69C33.69 16.3942 32.7877 14.0821 30.6622 12.7936C29.6547 12.1829 28.4521 11.8559 27.1259 11.6747C25.7985 11.4933 24.2809 11.45 22.61 11.45V13.45ZM31.69 19.94C31.69 23.2232 30.8749 24.6734 29.6221 25.4393C28.9415 25.8554 28.0408 26.1296 26.8542 26.2928C25.6687 26.4558 24.2643 26.5 22.61 26.5V28.5C24.2807 28.5 25.7988 28.4567 27.1267 28.2741C28.4536 28.0916 29.6572 27.7621 30.6654 27.1457C32.7901 25.8466 33.69 23.5168 33.69 19.94H31.69ZM48.7703 52H47.7703V53H48.7703V52ZM59.9703 52V53H60.9703V52H59.9703ZM59.9703 26.03L59.9937 25.0303L58.9703 25.0064V26.03H59.9703ZM77.9603 26.45L77.937 27.4497L78.9603 27.4736V26.45H77.9603ZM77.9603 16.65H78.9603V15.6739L77.9845 15.6503L77.9603 16.65ZM54.7903 16.09L54.8145 15.0903L54.8085 15.0902L54.7903 16.09ZM48.7703 53H59.9703V51H48.7703V53ZM60.9703 52V26.03H58.9703V52H60.9703ZM59.947 27.0297L77.937 27.4497L77.9837 25.4503L59.9937 25.0303L59.947 27.0297ZM78.9603 26.45V16.65H76.9603V26.45H78.9603ZM77.9845 15.6503L54.8145 15.0903L54.7662 17.0897L77.9361 17.6497L77.9845 15.6503ZM54.8085 15.0902C52.7039 15.0519 50.9083 15.6067 49.6387 16.8438C48.3678 18.0821 47.7703 19.8613 47.7703 21.97H49.7703C49.7703 20.2287 50.2578 19.0329 51.0344 18.2762C51.8123 17.5183 53.0267 17.0581 54.7721 17.0898L54.8085 15.0902ZM47.7703 21.97V52H49.7703V21.97H47.7703ZM79.798 34.29C79.798 40.7423 82.1058 45.6375 85.952 48.9035C89.7749 52.1497 95.014 53.7 100.748 53.7V51.7C95.3521 51.7 90.6162 50.2403 87.2466 47.379C83.9003 44.5375 81.798 40.2277 81.798 34.29H79.798ZM100.748 53.7C106.448 53.7 111.67 52.149 115.484 48.9027C119.32 45.6369 121.628 40.7422 121.628 34.29H119.628C119.628 40.2278 117.526 44.5381 114.187 47.3798C110.826 50.241 106.108 51.7 100.748 51.7V53.7ZM121.628 34.29C121.628 27.871 119.319 22.9939 115.483 19.7376C111.669 16.501 106.448 14.95 100.748 14.95V16.95C106.108 16.95 110.827 18.409 114.188 21.2624C117.527 24.0961 119.628 28.389 119.628 34.29H121.628ZM100.748 14.95C95.014 14.95 89.7756 16.5003 85.9531 19.7368C82.1071 22.9933 79.798 27.8709 79.798 34.29H81.798C81.798 28.3891 83.899 24.0967 87.2455 21.2632C90.6155 18.4097 95.3521 16.95 100.748 16.95V14.95ZM92.998 34.29C92.998 31.5464 93.7926 29.7118 95.0549 28.5511C96.3319 27.3768 98.2415 26.75 100.748 26.75V24.75C97.9346 24.75 95.4691 25.4532 93.7012 27.0789C91.9185 28.7182 90.998 31.1536 90.998 34.29H92.998ZM100.748 26.75C103.217 26.75 105.109 27.3753 106.378 28.5492C107.633 29.7103 108.428 31.5463 108.428 34.29H110.428C110.428 31.1537 109.508 28.7197 107.736 27.0808C105.978 25.4547 103.53 24.75 100.748 24.75V26.75ZM108.428 34.29C108.428 37.0721 107.631 38.9255 106.376 40.0942C105.107 41.2748 103.217 41.9 100.748 41.9V43.9C103.53 43.9 105.979 43.1952 107.738 41.5583C109.51 39.9095 110.428 37.4579 110.428 34.29H108.428ZM100.748 41.9C98.2415 41.9 96.3335 41.2732 95.0572 40.0923C93.7947 38.924 92.998 37.072 92.998 34.29H90.998C90.998 37.458 91.9164 39.911 93.6989 41.5602C95.4676 43.1968 97.9346 43.9 100.748 43.9V41.9ZM122.038 66L121.184 65.4797L120.258 67H122.038V66ZM134.638 66V67H135.22L135.507 66.4938L134.638 66ZM141.078 54.66L141.947 55.1538L141.952 55.1451L141.957 55.1363L141.078 54.66ZM136.248 16.16L136.282 17.1594L136.284 17.1593L136.248 16.16ZM122.038 16.65L122.003 15.6506L121.038 15.6839V16.65H122.038ZM122.038 26.45H121.038V27.5L122.087 27.4488L122.038 26.45ZM130.648 26.03H131.648V24.98L130.599 25.0312L130.648 26.03ZM129.458 53.82L128.608 53.2936L128.604 53.2997L129.458 53.82ZM135.758 14.15C137.966 14.15 139.898 13.6276 141.297 12.4913C142.726 11.3308 143.478 9.62812 143.478 7.55H141.478C141.478 9.11187 140.935 10.2092 140.036 10.9387C139.108 11.6924 137.68 12.15 135.758 12.15V14.15ZM143.478 7.55C143.478 5.50217 142.723 3.80367 141.301 2.63781C139.904 1.4936 137.974 0.949998 135.758 0.949998V2.95C137.672 2.95 139.101 3.42139 140.033 4.18469C140.938 4.92633 141.478 6.02782 141.478 7.55H143.478ZM135.758 0.949998C133.542 0.949998 131.639 1.49381 130.274 2.64741C128.885 3.82116 128.178 5.52048 128.178 7.55H130.178C130.178 6.00951 130.696 4.90883 131.565 4.17508C132.457 3.42118 133.844 2.95 135.758 2.95V0.949998ZM128.178 7.55C128.178 9.60979 128.882 11.3134 130.277 12.4818C131.646 13.6275 133.55 14.15 135.758 14.15V12.15C133.836 12.15 132.45 11.6925 131.561 10.9482C130.699 10.2266 130.178 9.13021 130.178 7.55H128.178ZM122.038 67H134.638V65H122.038V67ZM135.507 66.4938L141.947 55.1538L140.208 54.1662L133.768 65.5062L135.507 66.4938ZM141.957 55.1363C142.952 53.2997 143.268 51.8741 143.268 49.9H141.268C141.268 51.5659 141.024 52.6603 140.199 54.1837L141.957 55.1363ZM143.268 49.9V21.97H141.268V49.9H143.268ZM143.268 21.97C143.268 19.8627 142.671 18.0806 141.396 16.8495C140.121 15.6181 138.32 15.084 136.212 15.1607L136.284 17.1593C138.026 17.096 139.234 17.5419 140.007 18.288C140.78 19.0344 141.268 20.2273 141.268 21.97H143.268ZM136.213 15.1606L122.003 15.6506L122.072 17.6494L136.282 17.1594L136.213 15.1606ZM121.038 16.65V26.45H123.038V16.65H121.038ZM122.087 27.4488L130.697 27.0288L130.599 25.0312L121.989 25.4512L122.087 27.4488ZM129.648 26.03V49.06H131.648V26.03H129.648ZM129.648 49.06C129.648 50.762 129.389 52.031 128.608 53.2936L130.308 54.3464C131.347 52.669 131.648 50.998 131.648 49.06H129.648ZM128.604 53.2997L121.184 65.4797L122.892 66.5203L130.312 54.3403L128.604 53.2997ZM185.608 39.54L186.599 39.6757L186.755 38.54H185.608V39.54ZM174.408 39.54V38.54H173.637L173.441 39.2855L174.408 39.54ZM157.538 36.67V35.67H156.538V36.67H157.538ZM184.348 36.67V37.67H185.348V36.67H184.348ZM157.538 30.37H156.538V31.37H157.538V30.37ZM173.848 30.37V31.37H174.848V30.37H173.848ZM146.038 33.87C146.038 39.0768 147.66 44.0473 151.123 47.7243C154.598 51.4139 159.831 53.7 166.848 53.7V51.7C160.286 51.7 155.614 49.5761 152.579 46.3532C149.532 43.1177 148.038 38.6732 148.038 33.87H146.038ZM166.848 53.7C179.589 53.7 185.83 45.29 186.599 39.6757L184.618 39.4043C183.987 44.01 178.608 51.7 166.848 51.7V53.7ZM185.608 38.54H174.408V40.54H185.608V38.54ZM173.441 39.2855C172.924 41.2523 170.645 42.6 166.848 42.6V44.6C170.892 44.6 174.493 43.1477 175.375 39.7945L173.441 39.2855ZM166.848 42.6C163.797 42.6 161.722 41.9108 160.429 40.8766C159.167 39.8665 158.538 38.4388 158.538 36.67H156.538C156.538 38.9612 157.38 40.9985 159.18 42.4384C160.95 43.8542 163.53 44.6 166.848 44.6V42.6ZM157.538 37.67H184.348V35.67H157.538V37.67ZM185.348 36.67V33.17H183.348V36.67H185.348ZM185.348 33.17C185.348 27.5607 183.324 22.9749 179.793 19.8002C176.275 16.6363 171.347 14.95 165.658 14.95V16.95C170.96 16.95 175.377 18.5187 178.456 21.2873C181.523 24.0451 183.348 28.0693 183.348 33.17H185.348ZM165.658 14.95C159.961 14.95 155.044 16.6942 151.543 19.9809C148.033 23.275 146.038 28.0328 146.038 33.87H148.038C148.038 28.5072 149.858 24.305 152.911 21.4391C155.972 18.5658 160.365 16.95 165.658 16.95V14.95ZM158.538 30.37C158.538 29.2922 158.91 28.2719 159.885 27.4944C160.893 26.6914 162.666 26.05 165.658 26.05V24.05C162.42 24.05 160.134 24.7386 158.639 25.9306C157.111 27.1481 156.538 28.7878 156.538 30.37H158.538ZM165.658 26.05C168.65 26.05 170.444 26.6912 171.471 27.4986C172.467 28.281 172.848 29.303 172.848 30.37H174.848C174.848 28.777 174.25 27.139 172.708 25.9264C171.197 24.7388 168.897 24.05 165.658 24.05V26.05ZM173.848 29.37H157.538V31.37H173.848V29.37ZM227.369 37.37L228.368 37.4186L228.419 36.37H227.369V37.37ZM216.169 37.37V36.37H215.294L215.178 37.2378L216.169 37.37ZM216.169 31.28L215.178 31.4122L215.294 32.28H216.169V31.28ZM227.369 31.28V32.28H228.419L228.368 31.2314L227.369 31.28ZM188.079 34.29C188.079 40.4441 190.181 45.33 193.839 48.6697C197.484 51.9982 202.575 53.7 208.399 53.7V51.7C202.954 51.7 198.384 50.1118 195.187 47.1928C192.003 44.285 190.079 39.9659 190.079 34.29H188.079ZM208.399 53.7C213.398 53.7 218.239 52.3431 221.918 49.6186C225.62 46.8769 228.108 42.7732 228.368 37.4186L226.37 37.3214C226.141 42.0468 223.973 45.6081 220.728 48.0114C217.459 50.4319 213.06 51.7 208.399 51.7V53.7ZM227.369 36.37H216.169V38.37H227.369V36.37ZM215.178 37.2378C214.842 39.7573 212.526 41.9 208.399 41.9V43.9C213.233 43.9 216.656 41.2827 217.161 37.5022L215.178 37.2378ZM208.399 41.9C205.939 41.9 204.205 41.1771 203.077 39.962C201.938 38.735 201.279 36.8598 201.279 34.29H199.279C199.279 37.1802 200.021 39.61 201.612 41.3229C203.213 43.0479 205.54 43.9 208.399 43.9V41.9ZM201.279 34.29C201.279 31.7582 201.936 29.9006 203.075 28.6814C204.204 27.4731 205.939 26.75 208.399 26.75V24.75C205.54 24.75 203.215 25.6019 201.614 27.3161C200.022 29.0194 199.279 31.4318 199.279 34.29H201.279ZM208.399 26.75C212.526 26.75 214.842 28.8927 215.178 31.4122L217.161 31.1478C216.656 27.3673 213.233 24.75 208.399 24.75V26.75ZM216.169 32.28H227.369V30.28H216.169V32.28ZM228.368 31.2314C228.108 25.8768 225.62 21.7731 221.918 19.0314C218.239 16.3069 213.398 14.95 208.399 14.95V16.95C213.06 16.95 217.459 18.2181 220.728 20.6386C223.973 23.0419 226.141 26.6032 226.37 31.3286L228.368 31.2314ZM208.399 14.95C202.575 14.95 197.485 16.6518 193.84 19.9706C190.182 23.3008 188.079 28.1692 188.079 34.29H190.079C190.079 28.6508 192.001 24.3492 195.186 21.4494C198.384 18.5382 202.954 16.95 208.399 16.95V14.95ZM248.347 42.9H247.347V43.9552L248.401 43.8986L248.347 42.9ZM248.347 26.45V25.45H247.347V26.45H248.347ZM259.967 26.45V27.45H260.967V26.45H259.967ZM259.967 16.65H260.967V15.65H259.967V16.65ZM248.347 16.65H247.347V17.65H248.347V16.65ZM248.347 6.5H249.347V5.13981L248.049 5.54552L248.347 6.5ZM237.147 10L236.849 9.04552L236.147 9.26481V10H237.147ZM237.147 16.65V17.65H238.147V16.65H237.147ZM228.747 16.65V15.65H227.747V16.65H228.747ZM228.747 26.45H227.747V27.45H228.747V26.45ZM237.147 26.45H238.147V25.45H237.147V26.45ZM243.097 52.7L243.133 53.6993L243.135 53.6993L243.097 52.7ZM261.367 52L261.405 52.9993L262.367 52.9624V52H261.367ZM261.367 42.2H262.367V41.1448L261.313 41.2014L261.367 42.2ZM249.347 42.9V26.45H247.347V42.9H249.347ZM248.347 27.45H259.967V25.45H248.347V27.45ZM260.967 26.45V16.65H258.967V26.45H260.967ZM259.967 15.65H248.347V17.65H259.967V15.65ZM249.347 16.65V6.5H247.347V16.65H249.347ZM248.049 5.54552L236.849 9.04552L237.445 10.9545L248.645 7.45448L248.049 5.54552ZM236.147 10V16.65H238.147V10H236.147ZM237.147 15.65H228.747V17.65H237.147V15.65ZM227.747 16.65V26.45H229.747V16.65H227.747ZM228.747 27.45H237.147V25.45H228.747V27.45ZM236.147 26.45V46.75H238.147V26.45H236.147ZM236.147 46.75C236.147 48.848 236.721 50.6562 237.965 51.9222C239.218 53.1969 241.007 53.7766 243.133 53.6993L243.061 51.7007C241.336 51.7634 240.151 51.2931 239.391 50.5203C238.623 49.7388 238.147 48.502 238.147 46.75H236.147ZM243.135 53.6993L261.405 52.9993L261.329 51.0007L243.059 51.7007L243.135 53.6993ZM262.367 52V42.2H260.367V52H262.367ZM261.313 41.2014L248.293 41.9014L248.401 43.8986L261.421 43.1986L261.313 41.2014ZM286.783 30.93L287.094 29.9794L287.093 29.979L286.783 30.93ZM287.553 28.76H286.553V29.76H287.553V28.76ZM298.753 28.76V29.76H299.753V28.76H298.753ZM281.113 37.72L281.43 36.7713L281.427 36.7703L281.113 37.72ZM276.073 39.19H277.073V38.19H276.073V39.19ZM264.873 39.19V38.19H263.873V39.19H264.873ZM300.943 42.27C300.943 40.2835 300.516 38.6219 299.722 37.2197C298.93 35.8213 297.806 34.7366 296.494 33.854C293.917 32.1208 290.461 31.0789 287.094 29.9794L286.473 31.8806C289.966 33.021 293.089 33.9742 295.378 35.5135C296.498 36.2671 297.378 37.1381 297.982 38.205C298.583 39.2681 298.943 40.5815 298.943 42.27H300.943ZM287.093 29.979C284.261 29.0587 282.054 28.3616 280.54 27.6887C279.782 27.3519 279.278 27.0547 278.976 26.7907C278.684 26.5356 278.683 26.4067 278.683 26.38H276.683C276.683 27.1933 277.121 27.8257 277.66 28.2968C278.189 28.759 278.91 29.1531 279.727 29.5163C281.363 30.2434 283.706 30.9813 286.474 31.881L287.093 29.979ZM278.683 26.38C278.683 26.2153 278.723 26.1182 278.774 26.0461C278.83 25.9653 278.945 25.8551 279.18 25.7433C279.677 25.507 280.53 25.35 281.813 25.35V23.35C280.436 23.35 279.224 23.508 278.322 23.9367C277.857 24.1574 277.438 24.4672 277.136 24.8983C276.828 25.3381 276.683 25.8447 276.683 26.38H278.683ZM281.813 25.35C283.586 25.35 284.769 25.7854 285.49 26.3811C286.192 26.96 286.553 27.7677 286.553 28.76H288.553C288.553 27.2323 287.97 25.835 286.764 24.8389C285.578 23.8596 283.891 23.35 281.813 23.35V25.35ZM287.553 29.76H298.753V27.76H287.553V29.76ZM299.753 28.76C299.753 25.0817 298.432 21.5861 295.46 19.025C292.503 16.4765 288.025 14.95 281.883 14.95V16.95C287.712 16.95 291.669 18.3985 294.154 20.54C296.625 22.6688 297.753 25.5783 297.753 28.76H299.753ZM281.883 14.95C276.916 14.95 272.85 15.8755 269.993 17.717C267.085 19.591 265.483 22.3865 265.483 25.89H267.483C267.483 23.0935 268.717 20.919 271.076 19.398C273.487 17.8445 277.121 16.95 281.883 16.95V14.95ZM265.483 25.89C265.483 28.0488 266.036 29.8341 267.007 31.3179C267.971 32.791 269.313 33.9148 270.817 34.8155C273.777 36.5876 277.601 37.6145 280.8 38.6697L281.427 36.7703C278.046 35.6555 274.555 34.7224 271.845 33.0995C270.514 32.3027 269.432 31.3703 268.681 30.2227C267.937 29.0859 267.483 27.6862 267.483 25.89H265.483ZM280.797 38.6687C283.688 39.6321 285.495 40.1967 286.615 40.7446C287.164 41.0128 287.437 41.2274 287.576 41.3966C287.686 41.53 287.743 41.6706 287.743 41.92H289.743C289.743 41.2594 289.556 40.6562 289.121 40.1268C288.716 39.6332 288.144 39.266 287.494 38.9479C286.217 38.3233 284.209 37.6979 281.43 36.7713L280.797 38.6687ZM287.743 41.92C287.743 42.1392 287.686 42.2858 287.598 42.4044C287.501 42.5348 287.325 42.6861 287.009 42.8293C286.355 43.1259 285.301 43.3 283.843 43.3V45.3C285.396 45.3 286.792 45.1241 287.835 44.6507C288.368 44.4089 288.852 44.0702 289.204 43.5969C289.564 43.1117 289.743 42.5408 289.743 41.92H287.743ZM283.843 43.3C281.015 43.3 279.328 42.7239 278.366 41.9785C277.446 41.2652 277.073 40.3051 277.073 39.19H275.073C275.073 40.8049 275.646 42.3998 277.141 43.559C278.594 44.6861 280.792 45.3 283.843 45.3V43.3ZM276.073 38.19H264.873V40.19H276.073V38.19ZM263.873 39.19C263.873 43.5659 265.37 47.263 268.689 49.8331C271.963 52.3692 276.873 53.7 283.493 53.7V51.7C277.094 51.7 272.694 50.4058 269.913 48.2519C267.176 46.132 265.873 43.0741 265.873 39.19H263.873ZM283.493 53.7C289.678 53.7 294.036 52.5675 296.87 50.5279C299.761 48.4474 300.943 45.5138 300.943 42.27H298.943C298.943 44.9762 297.991 47.2576 295.702 48.9046C293.356 50.5925 289.489 51.7 283.493 51.7V53.7Z" fill="url(#paint0_linear_241_359)"/>
<path d="M25.91 2.65H8.2V52H19.4V37.3H25.91C38.37 37.3 47.89 34.92 47.89 19.94C47.89 5.03 38.37 2.65 25.91 2.65ZM26.61 27.5H19.4V12.45H26.61C33.26 12.45 36.69 13.15 36.69 19.94C36.69 26.8 33.26 27.5 26.61 27.5ZM52.7703 52H63.9703V26.03L81.9603 26.45V16.65L58.7903 16.09C54.9403 16.02 52.7703 18.12 52.7703 21.97V52ZM84.798 34.29C84.798 46.68 93.618 52.7 104.748 52.7C115.808 52.7 124.628 46.68 124.628 34.29C124.628 21.97 115.808 15.95 104.748 15.95C93.618 15.95 84.798 21.97 84.798 34.29ZM95.998 34.29C95.998 28.41 99.428 25.75 104.748 25.75C109.998 25.75 113.428 28.41 113.428 34.29C113.428 40.24 109.998 42.9 104.748 42.9C99.428 42.9 95.998 40.24 95.998 34.29ZM139.758 13.15C143.888 13.15 146.478 11.19 146.478 7.55C146.478 3.98 143.888 1.95 139.758 1.95C135.628 1.95 133.178 3.98 133.178 7.55C133.178 11.19 135.628 13.15 139.758 13.15ZM126.038 66H138.638L145.078 54.66C145.988 52.98 146.268 51.72 146.268 49.9V21.97C146.268 18.12 144.098 16.02 140.248 16.16L126.038 16.65V26.45L134.648 26.03V49.06C134.648 50.88 134.368 52.35 133.458 53.82L126.038 66ZM151.038 33.87C151.038 43.88 157.268 52.7 170.848 52.7C183.098 52.7 188.908 44.65 189.608 39.54H178.408C177.708 42.2 174.768 43.6 170.848 43.6C164.478 43.6 161.538 40.73 161.538 36.67H188.348V33.17C188.348 22.46 180.648 15.95 169.658 15.95C158.668 15.95 151.038 22.67 151.038 33.87ZM161.538 30.37C161.538 27.71 163.428 25.05 169.658 25.05C175.888 25.05 177.848 27.71 177.848 30.37H161.538ZM193.079 34.29C193.079 46.12 201.129 52.7 212.399 52.7C222.059 52.7 230.879 47.45 231.369 37.37H220.169C219.749 40.52 216.879 42.9 212.399 42.9C207.079 42.9 204.279 39.75 204.279 34.29C204.279 28.9 207.079 25.75 212.399 25.75C216.879 25.75 219.749 28.13 220.169 31.28H231.369C230.879 21.2 222.059 15.95 212.399 15.95C201.129 15.95 193.079 22.53 193.079 34.29ZM252.347 42.9V26.45H263.967V16.65H252.347V6.5L241.147 10V16.65H232.747V26.45H241.147V46.75C241.147 50.6 243.247 52.84 247.097 52.7L265.367 52V42.2L252.347 42.9ZM303.943 42.27C303.943 34.92 297.643 33.17 290.783 30.93C285.183 29.11 281.683 28.06 281.683 26.38C281.683 24.98 283.153 24.35 285.813 24.35C289.663 24.35 291.553 26.24 291.553 28.76H302.753C302.753 21.9 297.853 15.95 285.883 15.95C276.153 15.95 270.483 19.59 270.483 25.89C270.483 33.8 278.533 35.55 285.113 37.72C290.783 39.61 292.743 40.1 292.743 41.92C292.743 43.6 290.853 44.3 287.843 44.3C281.963 44.3 280.073 41.92 280.073 39.19H268.873C268.873 47.45 274.473 52.7 287.493 52.7C299.673 52.7 303.943 48.22 303.943 42.27Z" fill="white"/>
<path d="M8.2 2.65V1.65H7.2V2.65H8.2ZM8.2 52H7.2V53H8.2V52ZM19.4 52V53H20.4V52H19.4ZM19.4 37.3V36.3H18.4V37.3H19.4ZM19.4 27.5H18.4V28.5H19.4V27.5ZM19.4 12.45V11.45H18.4V12.45H19.4ZM25.91 1.65H8.2V3.65H25.91V1.65ZM7.2 2.65V52H9.2V2.65H7.2ZM8.2 53H19.4V51H8.2V53ZM20.4 52V37.3H18.4V52H20.4ZM19.4 38.3H25.91V36.3H19.4V38.3ZM25.91 38.3C32.1488 38.3 37.9035 37.7169 42.1035 35.0849C46.4162 32.3823 48.89 27.663 48.89 19.94H46.89C46.89 27.197 44.6039 31.1577 41.0415 33.3901C37.3666 35.6931 32.1312 36.3 25.91 36.3V38.3ZM48.89 19.94C48.89 12.2501 46.4148 7.54852 42.1022 4.85554C37.9027 2.23319 32.149 1.65 25.91 1.65V3.65C32.131 3.65 37.3673 4.2568 41.0428 6.55196C44.6052 8.77648 46.89 12.7199 46.89 19.94H48.89ZM26.61 26.5H19.4V28.5H26.61V26.5ZM20.4 27.5V12.45H18.4V27.5H20.4ZM19.4 13.45H26.61V11.45H19.4V13.45ZM26.61 13.45C28.2641 13.45 29.669 13.4942 30.8551 13.6563C32.0423 13.8185 32.9441 14.0909 33.6254 14.5039C34.8773 15.2629 35.69 16.6958 35.69 19.94H37.69C37.69 16.3942 36.7877 14.0821 34.6622 12.7936C33.6547 12.1829 32.4521 11.8559 31.1259 11.6747C29.7985 11.4933 28.2809 11.45 26.61 11.45V13.45ZM35.69 19.94C35.69 23.2232 34.8749 24.6734 33.6221 25.4393C32.9415 25.8554 32.0408 26.1296 30.8542 26.2928C29.6687 26.4558 28.2643 26.5 26.61 26.5V28.5C28.2807 28.5 29.7988 28.4567 31.1267 28.2741C32.4536 28.0916 33.6572 27.7621 34.6654 27.1457C36.7901 25.8466 37.69 23.5168 37.69 19.94H35.69ZM52.7703 52H51.7703V53H52.7703V52ZM63.9703 52V53H64.9703V52H63.9703ZM63.9703 26.03L63.9937 25.0303L62.9703 25.0064V26.03H63.9703ZM81.9603 26.45L81.937 27.4497L82.9603 27.4736V26.45H81.9603ZM81.9603 16.65H82.9603V15.6739L81.9845 15.6503L81.9603 16.65ZM58.7903 16.09L58.8145 15.0903L58.8085 15.0902L58.7903 16.09ZM52.7703 53H63.9703V51H52.7703V53ZM64.9703 52V26.03H62.9703V52H64.9703ZM63.947 27.0297L81.937 27.4497L81.9837 25.4503L63.9937 25.0303L63.947 27.0297ZM82.9603 26.45V16.65H80.9603V26.45H82.9603ZM81.9845 15.6503L58.8145 15.0903L58.7662 17.0897L81.9361 17.6497L81.9845 15.6503ZM58.8085 15.0902C56.7039 15.0519 54.9083 15.6067 53.6387 16.8438C52.3678 18.0821 51.7703 19.8613 51.7703 21.97H53.7703C53.7703 20.2287 54.2578 19.0329 55.0344 18.2762C55.8123 17.5183 57.0267 17.0581 58.7721 17.0898L58.8085 15.0902ZM51.7703 21.97V52H53.7703V21.97H51.7703ZM83.798 34.29C83.798 40.7423 86.1058 45.6375 89.952 48.9035C93.7749 52.1497 99.014 53.7 104.748 53.7V51.7C99.3521 51.7 94.6162 50.2403 91.2466 47.379C87.9003 44.5375 85.798 40.2277 85.798 34.29H83.798ZM104.748 53.7C110.448 53.7 115.67 52.149 119.484 48.9027C123.32 45.6369 125.628 40.7422 125.628 34.29H123.628C123.628 40.2278 121.526 44.5381 118.187 47.3798C114.826 50.241 110.108 51.7 104.748 51.7V53.7ZM125.628 34.29C125.628 27.871 123.319 22.9939 119.483 19.7376C115.669 16.501 110.448 14.95 104.748 14.95V16.95C110.108 16.95 114.827 18.409 118.188 21.2624C121.527 24.0961 123.628 28.389 123.628 34.29H125.628ZM104.748 14.95C99.014 14.95 93.7756 16.5003 89.9531 19.7368C86.1071 22.9933 83.798 27.8709 83.798 34.29H85.798C85.798 28.3891 87.899 24.0967 91.2455 21.2632C94.6155 18.4097 99.3521 16.95 104.748 16.95V14.95ZM96.998 34.29C96.998 31.5464 97.7926 29.7118 99.0549 28.5511C100.332 27.3768 102.241 26.75 104.748 26.75V24.75C101.935 24.75 99.4691 25.4532 97.7012 27.0789C95.9185 28.7182 94.998 31.1536 94.998 34.29H96.998ZM104.748 26.75C107.217 26.75 109.109 27.3753 110.378 28.5492C111.633 29.7103 112.428 31.5463 112.428 34.29H114.428C114.428 31.1537 113.508 28.7197 111.736 27.0808C109.978 25.4547 107.53 24.75 104.748 24.75V26.75ZM112.428 34.29C112.428 37.0721 111.631 38.9255 110.376 40.0942C109.107 41.2748 107.217 41.9 104.748 41.9V43.9C107.53 43.9 109.979 43.1952 111.738 41.5583C113.51 39.9095 114.428 37.4579 114.428 34.29H112.428ZM104.748 41.9C102.242 41.9 100.334 41.2732 99.0572 40.0923C97.7947 38.924 96.998 37.072 96.998 34.29H94.998C94.998 37.458 95.9164 39.911 97.6989 41.5602C99.4676 43.1968 101.935 43.9 104.748 43.9V41.9ZM126.038 66L125.184 65.4797L124.258 67H126.038V66ZM138.638 66V67H139.22L139.507 66.4938L138.638 66ZM145.078 54.66L145.947 55.1538L145.952 55.1451L145.957 55.1363L145.078 54.66ZM140.248 16.16L140.282 17.1594L140.284 17.1593L140.248 16.16ZM126.038 16.65L126.003 15.6506L125.038 15.6839V16.65H126.038ZM126.038 26.45H125.038V27.5L126.087 27.4488L126.038 26.45ZM134.648 26.03H135.648V24.98L134.599 25.0312L134.648 26.03ZM133.458 53.82L132.608 53.2936L132.604 53.2997L133.458 53.82ZM139.758 14.15C141.966 14.15 143.898 13.6276 145.297 12.4913C146.726 11.3308 147.478 9.62812 147.478 7.55H145.478C145.478 9.11187 144.935 10.2092 144.036 10.9387C143.108 11.6924 141.68 12.15 139.758 12.15V14.15ZM147.478 7.55C147.478 5.50217 146.723 3.80367 145.301 2.63781C143.904 1.4936 141.974 0.949998 139.758 0.949998V2.95C141.672 2.95 143.101 3.42139 144.033 4.18469C144.938 4.92633 145.478 6.02782 145.478 7.55H147.478ZM139.758 0.949998C137.542 0.949998 135.639 1.49381 134.274 2.64741C132.885 3.82116 132.178 5.52048 132.178 7.55H134.178C134.178 6.00951 134.696 4.90883 135.565 4.17508C136.457 3.42118 137.844 2.95 139.758 2.95V0.949998ZM132.178 7.55C132.178 9.60979 132.882 11.3134 134.277 12.4818C135.646 13.6275 137.55 14.15 139.758 14.15V12.15C137.836 12.15 136.45 11.6925 135.561 10.9482C134.699 10.2266 134.178 9.13021 134.178 7.55H132.178ZM126.038 67H138.638V65H126.038V67ZM139.507 66.4938L145.947 55.1538L144.208 54.1662L137.768 65.5062L139.507 66.4938ZM145.957 55.1363C146.952 53.2997 147.268 51.8741 147.268 49.9H145.268C145.268 51.5659 145.024 52.6603 144.199 54.1837L145.957 55.1363ZM147.268 49.9V21.97H145.268V49.9H147.268ZM147.268 21.97C147.268 19.8627 146.671 18.0806 145.396 16.8495C144.121 15.6181 142.32 15.084 140.212 15.1607L140.284 17.1593C142.026 17.096 143.234 17.5419 144.007 18.288C144.78 19.0344 145.268 20.2273 145.268 21.97H147.268ZM140.213 15.1606L126.003 15.6506L126.072 17.6494L140.282 17.1594L140.213 15.1606ZM125.038 16.65V26.45H127.038V16.65H125.038ZM126.087 27.4488L134.697 27.0288L134.599 25.0312L125.989 25.4512L126.087 27.4488ZM133.648 26.03V49.06H135.648V26.03H133.648ZM133.648 49.06C133.648 50.762 133.389 52.031 132.608 53.2936L134.308 54.3464C135.347 52.669 135.648 50.998 135.648 49.06H133.648ZM132.604 53.2997L125.184 65.4797L126.892 66.5203L134.312 54.3403L132.604 53.2997ZM189.608 39.54L190.599 39.6757L190.755 38.54H189.608V39.54ZM178.408 39.54V38.54H177.637L177.441 39.2855L178.408 39.54ZM161.538 36.67V35.67H160.538V36.67H161.538ZM188.348 36.67V37.67H189.348V36.67H188.348ZM161.538 30.37H160.538V31.37H161.538V30.37ZM177.848 30.37V31.37H178.848V30.37H177.848ZM150.038 33.87C150.038 39.0768 151.66 44.0473 155.123 47.7243C158.598 51.4139 163.831 53.7 170.848 53.7V51.7C164.286 51.7 159.614 49.5761 156.579 46.3532C153.532 43.1177 152.038 38.6732 152.038 33.87H150.038ZM170.848 53.7C183.589 53.7 189.83 45.29 190.599 39.6757L188.618 39.4043C187.987 44.01 182.608 51.7 170.848 51.7V53.7ZM189.608 38.54H178.408V40.54H189.608V38.54ZM177.441 39.2855C176.924 41.2523 174.645 42.6 170.848 42.6V44.6C174.892 44.6 178.493 43.1477 179.375 39.7945L177.441 39.2855ZM170.848 42.6C167.797 42.6 165.722 41.9108 164.429 40.8766C163.167 39.8665 162.538 38.4388 162.538 36.67H160.538C160.538 38.9612 161.38 40.9985 163.18 42.4384C164.95 43.8542 167.53 44.6 170.848 44.6V42.6ZM161.538 37.67H188.348V35.67H161.538V37.67ZM189.348 36.67V33.17H187.348V36.67H189.348ZM189.348 33.17C189.348 27.5607 187.324 22.9749 183.793 19.8002C180.275 16.6363 175.347 14.95 169.658 14.95V16.95C174.96 16.95 179.377 18.5187 182.456 21.2873C185.523 24.0451 187.348 28.0693 187.348 33.17H189.348ZM169.658 14.95C163.961 14.95 159.044 16.6942 155.543 19.9809C152.033 23.275 150.038 28.0328 150.038 33.87H152.038C152.038 28.5072 153.858 24.305 156.911 21.4391C159.972 18.5658 164.365 16.95 169.658 16.95V14.95ZM162.538 30.37C162.538 29.2922 162.91 28.2719 163.885 27.4944C164.893 26.6914 166.666 26.05 169.658 26.05V24.05C166.42 24.05 164.134 24.7386 162.639 25.9306C161.111 27.1481 160.538 28.7878 160.538 30.37H162.538ZM169.658 26.05C172.65 26.05 174.444 26.6912 175.471 27.4986C176.467 28.281 176.848 29.303 176.848 30.37H178.848C178.848 28.777 178.25 27.139 176.708 25.9264C175.197 24.7388 172.897 24.05 169.658 24.05V26.05ZM177.848 29.37H161.538V31.37H177.848V29.37ZM231.369 37.37L232.368 37.4186L232.419 36.37H231.369V37.37ZM220.169 37.37V36.37H219.294L219.178 37.2378L220.169 37.37ZM220.169 31.28L219.178 31.4122L219.294 32.28H220.169V31.28ZM231.369 31.28V32.28H232.419L232.368 31.2314L231.369 31.28ZM192.079 34.29C192.079 40.4441 194.181 45.33 197.839 48.6697C201.484 51.9982 206.575 53.7 212.399 53.7V51.7C206.954 51.7 202.384 50.1118 199.187 47.1928C196.003 44.285 194.079 39.9659 194.079 34.29H192.079ZM212.399 53.7C217.398 53.7 222.239 52.3431 225.918 49.6186C229.62 46.8769 232.108 42.7732 232.368 37.4186L230.37 37.3214C230.141 42.0468 227.973 45.6081 224.728 48.0114C221.459 50.4319 217.06 51.7 212.399 51.7V53.7ZM231.369 36.37H220.169V38.37H231.369V36.37ZM219.178 37.2378C218.842 39.7573 216.526 41.9 212.399 41.9V43.9C217.233 43.9 220.656 41.2827 221.161 37.5022L219.178 37.2378ZM212.399 41.9C209.939 41.9 208.205 41.1771 207.077 39.962C205.938 38.735 205.279 36.8598 205.279 34.29H203.279C203.279 37.1802 204.021 39.61 205.612 41.3229C207.213 43.0479 209.54 43.9 212.399 43.9V41.9ZM205.279 34.29C205.279 31.7582 205.936 29.9006 207.075 28.6814C208.204 27.4731 209.939 26.75 212.399 26.75V24.75C209.54 24.75 207.215 25.6019 205.614 27.3161C204.022 29.0194 203.279 31.4318 203.279 34.29H205.279ZM212.399 26.75C216.526 26.75 218.842 28.8927 219.178 31.4122L221.161 31.1478C220.656 27.3673 217.233 24.75 212.399 24.75V26.75ZM220.169 32.28H231.369V30.28H220.169V32.28ZM232.368 31.2314C232.108 25.8768 229.62 21.7731 225.918 19.0314C222.239 16.3069 217.398 14.95 212.399 14.95V16.95C217.06 16.95 221.459 18.2181 224.728 20.6386C227.973 23.0419 230.141 26.6032 230.37 31.3286L232.368 31.2314ZM212.399 14.95C206.575 14.95 201.485 16.6518 197.84 19.9706C194.182 23.3008 192.079 28.1692 192.079 34.29H194.079C194.079 28.6508 196.001 24.3492 199.186 21.4494C202.384 18.5382 206.954 16.95 212.399 16.95V14.95ZM252.347 42.9H251.347V43.9552L252.401 43.8986L252.347 42.9ZM252.347 26.45V25.45H251.347V26.45H252.347ZM263.967 26.45V27.45H264.967V26.45H263.967ZM263.967 16.65H264.967V15.65H263.967V16.65ZM252.347 16.65H251.347V17.65H252.347V16.65ZM252.347 6.5H253.347V5.13981L252.049 5.54552L252.347 6.5ZM241.147 10L240.849 9.04552L240.147 9.26481V10H241.147ZM241.147 16.65V17.65H242.147V16.65H241.147ZM232.747 16.65V15.65H231.747V16.65H232.747ZM232.747 26.45H231.747V27.45H232.747V26.45ZM241.147 26.45H242.147V25.45H241.147V26.45ZM247.097 52.7L247.133 53.6993L247.135 53.6993L247.097 52.7ZM265.367 52L265.405 52.9993L266.367 52.9624V52H265.367ZM265.367 42.2H266.367V41.1448L265.313 41.2014L265.367 42.2ZM253.347 42.9V26.45H251.347V42.9H253.347ZM252.347 27.45H263.967V25.45H252.347V27.45ZM264.967 26.45V16.65H262.967V26.45H264.967ZM263.967 15.65H252.347V17.65H263.967V15.65ZM253.347 16.65V6.5H251.347V16.65H253.347ZM252.049 5.54552L240.849 9.04552L241.445 10.9545L252.645 7.45448L252.049 5.54552ZM240.147 10V16.65H242.147V10H240.147ZM241.147 15.65H232.747V17.65H241.147V15.65ZM231.747 16.65V26.45H233.747V16.65H231.747ZM232.747 27.45H241.147V25.45H232.747V27.45ZM240.147 26.45V46.75H242.147V26.45H240.147ZM240.147 46.75C240.147 48.848 240.721 50.6562 241.965 51.9222C243.218 53.1969 245.007 53.7766 247.133 53.6993L247.061 51.7007C245.336 51.7634 244.151 51.2931 243.391 50.5203C242.623 49.7388 242.147 48.502 242.147 46.75H240.147ZM247.135 53.6993L265.405 52.9993L265.329 51.0007L247.059 51.7007L247.135 53.6993ZM266.367 52V42.2H264.367V52H266.367ZM265.313 41.2014L252.293 41.9014L252.401 43.8986L265.421 43.1986L265.313 41.2014ZM290.783 30.93L291.094 29.9794L291.093 29.979L290.783 30.93ZM291.553 28.76H290.553V29.76H291.553V28.76ZM302.753 28.76V29.76H303.753V28.76H302.753ZM285.113 37.72L285.43 36.7713L285.427 36.7703L285.113 37.72ZM280.073 39.19H281.073V38.19H280.073V39.19ZM268.873 39.19V38.19H267.873V39.19H268.873ZM304.943 42.27C304.943 40.2835 304.516 38.6219 303.722 37.2197C302.93 35.8213 301.806 34.7366 300.494 33.854C297.917 32.1208 294.461 31.0789 291.094 29.9794L290.473 31.8806C293.966 33.021 297.089 33.9742 299.378 35.5135C300.498 36.2671 301.378 37.1381 301.982 38.205C302.583 39.2681 302.943 40.5815 302.943 42.27H304.943ZM291.093 29.979C288.261 29.0587 286.054 28.3616 284.54 27.6887C283.782 27.3519 283.278 27.0547 282.976 26.7907C282.684 26.5356 282.683 26.4067 282.683 26.38H280.683C280.683 27.1933 281.121 27.8257 281.66 28.2968C282.189 28.759 282.91 29.1531 283.727 29.5163C285.363 30.2434 287.706 30.9813 290.474 31.881L291.093 29.979ZM282.683 26.38C282.683 26.2153 282.723 26.1182 282.774 26.0461C282.83 25.9653 282.945 25.8551 283.18 25.7433C283.677 25.507 284.53 25.35 285.813 25.35V23.35C284.436 23.35 283.224 23.508 282.322 23.9367C281.857 24.1574 281.438 24.4672 281.136 24.8983C280.828 25.3381 280.683 25.8447 280.683 26.38H282.683ZM285.813 25.35C287.586 25.35 288.769 25.7854 289.49 26.3811C290.192 26.96 290.553 27.7677 290.553 28.76H292.553C292.553 27.2323 291.97 25.835 290.764 24.8389C289.578 23.8596 287.891 23.35 285.813 23.35V25.35ZM291.553 29.76H302.753V27.76H291.553V29.76ZM303.753 28.76C303.753 25.0817 302.432 21.5861 299.46 19.025C296.503 16.4765 292.025 14.95 285.883 14.95V16.95C291.712 16.95 295.669 18.3985 298.154 20.54C300.625 22.6688 301.753 25.5783 301.753 28.76H303.753ZM285.883 14.95C280.916 14.95 276.85 15.8755 273.993 17.717C271.085 19.591 269.483 22.3865 269.483 25.89H271.483C271.483 23.0935 272.717 20.919 275.076 19.398C277.487 17.8445 281.121 16.95 285.883 16.95V14.95ZM269.483 25.89C269.483 28.0488 270.036 29.8341 271.007 31.3179C271.971 32.791 273.313 33.9148 274.817 34.8155C277.777 36.5876 281.601 37.6145 284.8 38.6697L285.427 36.7703C282.046 35.6555 278.555 34.7224 275.845 33.0995C274.514 32.3027 273.432 31.3703 272.681 30.2227C271.937 29.0859 271.483 27.6862 271.483 25.89H269.483ZM284.797 38.6687C287.688 39.6321 289.495 40.1967 290.615 40.7446C291.164 41.0128 291.437 41.2274 291.576 41.3966C291.686 41.53 291.743 41.6706 291.743 41.92H293.743C293.743 41.2594 293.556 40.6562 293.121 40.1268C292.716 39.6332 292.144 39.266 291.494 38.9479C290.217 38.3233 288.209 37.6979 285.43 36.7713L284.797 38.6687ZM291.743 41.92C291.743 42.1392 291.686 42.2858 291.598 42.4044C291.501 42.5348 291.325 42.6861 291.009 42.8293C290.355 43.1259 289.301 43.3 287.843 43.3V45.3C289.396 45.3 290.792 45.1241 291.835 44.6507C292.368 44.4089 292.852 44.0702 293.204 43.5969C293.564 43.1117 293.743 42.5408 293.743 41.92H291.743ZM287.843 43.3C285.015 43.3 283.328 42.7239 282.366 41.9785C281.446 41.2652 281.073 40.3051 281.073 39.19H279.073C279.073 40.8049 279.646 42.3998 281.141 43.559C282.594 44.6861 284.792 45.3 287.843 45.3V43.3ZM280.073 38.19H268.873V40.19H280.073V38.19ZM267.873 39.19C267.873 43.5659 269.37 47.263 272.689 49.8331C275.963 52.3692 280.873 53.7 287.493 53.7V51.7C281.094 51.7 276.694 50.4058 273.913 48.2519C271.176 46.132 269.873 43.0741 269.873 39.19H267.873ZM287.493 53.7C293.678 53.7 298.036 52.5675 300.87 50.5279C303.761 48.4474 304.943 45.5138 304.943 42.27H302.943C302.943 44.9762 301.991 47.2576 299.702 48.9046C297.356 50.5925 293.489 51.7 287.493 51.7V53.7Z" fill="url(#paint1_linear_241_359)"/>
<defs>
<linearGradient id="paint0_linear_241_359" x1="0" y1="0" x2="29.1449" y2="129.438" gradientUnits="userSpaceOnUse">
<stop stop-color="#FF6EFF"/>
<stop offset="1" stop-color="#0AB7F6"/>
</linearGradient>
<linearGradient id="paint1_linear_241_359" x1="4" y1="0" x2="33.1449" y2="129.438" gradientUnits="userSpaceOnUse">
<stop stop-color="#FF6EFF"/>
<stop offset="1" stop-color="#0AB7F6"/>
</linearGradient>
</defs>
</svg>
