<svg width="296" height="65" viewBox="0 0 296 65" fill="none" xmlns="http://www.w3.org/2000/svg">
<path d="M17.91 1.65H0.2V51H11.4V36.3H17.91C30.37 36.3 39.89 33.92 39.89 18.94C39.89 4.03 30.37 1.65 17.91 1.65ZM18.61 26.5H11.4V11.45H18.61C25.26 11.45 28.69 12.15 28.69 18.94C28.69 25.8 25.26 26.5 18.61 26.5ZM44.7703 51H55.9703V25.03L73.9603 25.45V15.65L50.7903 15.09C46.9403 15.02 44.7703 17.12 44.7703 20.97V51ZM76.798 33.29C76.798 45.68 85.618 51.7 96.748 51.7C107.808 51.7 116.628 45.68 116.628 33.29C116.628 20.97 107.808 14.95 96.748 14.95C85.618 14.95 76.798 20.97 76.798 33.29ZM87.998 33.29C87.998 27.41 91.428 24.75 96.748 24.75C101.998 24.75 105.428 27.41 105.428 33.29C105.428 39.24 101.998 41.9 96.748 41.9C91.428 41.9 87.998 39.24 87.998 33.29ZM131.758 12.15C135.888 12.15 138.478 10.19 138.478 6.55C138.478 2.98 135.888 0.949998 131.758 0.949998C127.628 0.949998 125.178 2.98 125.178 6.55C125.178 10.19 127.628 12.15 131.758 12.15ZM118.038 65H130.638L137.078 53.66C137.988 51.98 138.268 50.72 138.268 48.9V20.97C138.268 17.12 136.098 15.02 132.248 15.16L118.038 15.65V25.45L126.648 25.03V48.06C126.648 49.88 126.368 51.35 125.458 52.82L118.038 65ZM143.038 32.87C143.038 42.88 149.268 51.7 162.848 51.7C175.098 51.7 180.908 43.65 181.608 38.54H170.408C169.708 41.2 166.768 42.6 162.848 42.6C156.478 42.6 153.538 39.73 153.538 35.67H180.348V32.17C180.348 21.46 172.648 14.95 161.658 14.95C150.668 14.95 143.038 21.67 143.038 32.87ZM153.538 29.37C153.538 26.71 155.428 24.05 161.658 24.05C167.888 24.05 169.848 26.71 169.848 29.37H153.538ZM185.079 33.29C185.079 45.12 193.129 51.7 204.399 51.7C214.059 51.7 222.879 46.45 223.369 36.37H212.169C211.749 39.52 208.879 41.9 204.399 41.9C199.079 41.9 196.279 38.75 196.279 33.29C196.279 27.9 199.079 24.75 204.399 24.75C208.879 24.75 211.749 27.13 212.169 30.28H223.369C222.879 20.2 214.059 14.95 204.399 14.95C193.129 14.95 185.079 21.53 185.079 33.29ZM244.347 41.9V25.45H255.967V15.65H244.347V5.5L233.147 9V15.65H224.747V25.45H233.147V45.75C233.147 49.6 235.247 51.84 239.097 51.7L257.367 51V41.2L244.347 41.9ZM295.943 41.27C295.943 33.92 289.643 32.17 282.783 29.93C277.183 28.11 273.683 27.06 273.683 25.38C273.683 23.98 275.153 23.35 277.813 23.35C281.663 23.35 283.553 25.24 283.553 27.76H294.753C294.753 20.9 289.853 14.95 277.883 14.95C268.153 14.95 262.483 18.59 262.483 24.89C262.483 32.8 270.533 34.55 277.113 36.72C282.783 38.61 284.743 39.1 284.743 40.92C284.743 42.6 282.853 43.3 279.843 43.3C273.963 43.3 272.073 40.92 272.073 38.19H260.873C260.873 46.45 266.473 51.7 279.493 51.7C291.673 51.7 295.943 47.22 295.943 41.27Z" fill="white"/>
<path d="M0.2 1.65V0.649997H-0.8V1.65H0.2ZM0.2 51H-0.8V52H0.2V51ZM11.4 51V52H12.4V51H11.4ZM11.4 36.3V35.3H10.4V36.3H11.4ZM11.4 26.5H10.4V27.5H11.4V26.5ZM11.4 11.45V10.45H10.4V11.45H11.4ZM17.91 0.649997H0.2V2.65H17.91V0.649997ZM-0.8 1.65V51H1.2V1.65H-0.8ZM0.2 52H11.4V50H0.2V52ZM12.4 51V36.3H10.4V51H12.4ZM11.4 37.3H17.91V35.3H11.4V37.3ZM17.91 37.3C24.1488 37.3 29.9035 36.7169 34.1035 34.0849C38.4162 31.3823 40.89 26.663 40.89 18.94H38.89C38.89 26.197 36.6039 30.1577 33.0415 32.3901C29.3666 34.6931 24.1312 35.3 17.91 35.3V37.3ZM40.89 18.94C40.89 11.2501 38.4148 6.54852 34.1022 3.85554C29.9027 1.23319 24.149 0.649997 17.91 0.649997V2.65C24.131 2.65 29.3673 3.2568 33.0428 5.55196C36.6052 7.77648 38.89 11.7199 38.89 18.94H40.89ZM18.61 25.5H11.4V27.5H18.61V25.5ZM12.4 26.5V11.45H10.4V26.5H12.4ZM11.4 12.45H18.61V10.45H11.4V12.45ZM18.61 12.45C20.2641 12.45 21.669 12.4942 22.8551 12.6563C24.0423 12.8185 24.9441 13.0909 25.6254 13.5039C26.8773 14.2629 27.69 15.6958 27.69 18.94H29.69C29.69 15.3942 28.7877 13.0821 26.6622 11.7936C25.6547 11.1829 24.4521 10.8559 23.1259 10.6747C21.7985 10.4933 20.2809 10.45 18.61 10.45V12.45ZM27.69 18.94C27.69 22.2232 26.8749 23.6734 25.6221 24.4393C24.9415 24.8554 24.0408 25.1296 22.8542 25.2928C21.6687 25.4558 20.2643 25.5 18.61 25.5V27.5C20.2807 27.5 21.7988 27.4567 23.1267 27.2741C24.4536 27.0916 25.6572 26.7621 26.6654 26.1457C28.7901 24.8466 29.69 22.5168 29.69 18.94H27.69ZM44.7703 51H43.7703V52H44.7703V51ZM55.9703 51V52H56.9703V51H55.9703ZM55.9703 25.03L55.9937 24.0303L54.9703 24.0064V25.03H55.9703ZM73.9603 25.45L73.937 26.4497L74.9603 26.4736V25.45H73.9603ZM73.9603 15.65H74.9603V14.6739L73.9845 14.6503L73.9603 15.65ZM50.7903 15.09L50.8145 14.0903L50.8085 14.0902L50.7903 15.09ZM44.7703 52H55.9703V50H44.7703V52ZM56.9703 51V25.03H54.9703V51H56.9703ZM55.947 26.0297L73.937 26.4497L73.9837 24.4503L55.9937 24.0303L55.947 26.0297ZM74.9603 25.45V15.65H72.9603V25.45H74.9603ZM73.9845 14.6503L50.8145 14.0903L50.7662 16.0897L73.9361 16.6497L73.9845 14.6503ZM50.8085 14.0902C48.7039 14.0519 46.9083 14.6067 45.6387 15.8438C44.3678 17.0821 43.7703 18.8613 43.7703 20.97H45.7703C45.7703 19.2287 46.2578 18.0329 47.0344 17.2762C47.8123 16.5183 49.0267 16.0581 50.7721 16.0898L50.8085 14.0902ZM43.7703 20.97V51H45.7703V20.97H43.7703ZM75.798 33.29C75.798 39.7423 78.1058 44.6375 81.952 47.9035C85.7749 51.1497 91.014 52.7 96.748 52.7V50.7C91.3521 50.7 86.6162 49.2403 83.2466 46.379C79.9003 43.5375 77.798 39.2277 77.798 33.29H75.798ZM96.748 52.7C102.448 52.7 107.67 51.149 111.484 47.9027C115.32 44.6369 117.628 39.7422 117.628 33.29H115.628C115.628 39.2278 113.526 43.5381 110.187 46.3798C106.826 49.241 102.108 50.7 96.748 50.7V52.7ZM117.628 33.29C117.628 26.871 115.319 21.9939 111.483 18.7376C107.669 15.501 102.448 13.95 96.748 13.95V15.95C102.108 15.95 106.827 17.409 110.188 20.2624C113.527 23.0961 115.628 27.389 115.628 33.29H117.628ZM96.748 13.95C91.014 13.95 85.7756 15.5003 81.9531 18.7368C78.1071 21.9933 75.798 26.8709 75.798 33.29H77.798C77.798 27.3891 79.899 23.0967 83.2455 20.2632C86.6155 17.4097 91.3521 15.95 96.748 15.95V13.95ZM88.998 33.29C88.998 30.5464 89.7926 28.7118 91.0549 27.5511C92.3319 26.3768 94.2415 25.75 96.748 25.75V23.75C93.9346 23.75 91.4691 24.4532 89.7012 26.0789C87.9185 27.7182 86.998 30.1536 86.998 33.29H88.998ZM96.748 25.75C99.2166 25.75 101.109 26.3753 102.378 27.5492C103.633 28.7103 104.428 30.5463 104.428 33.29H106.428C106.428 30.1537 105.508 27.7197 103.736 26.0808C101.978 24.4547 99.5295 23.75 96.748 23.75V25.75ZM104.428 33.29C104.428 36.0721 103.631 37.9255 102.376 39.0942C101.107 40.2748 99.2165 40.9 96.748 40.9V42.9C99.5296 42.9 101.979 42.1952 103.738 40.5583C105.51 38.9095 106.428 36.4579 106.428 33.29H104.428ZM96.748 40.9C94.2415 40.9 92.3335 40.2732 91.0572 39.0923C89.7947 37.924 88.998 36.072 88.998 33.29H86.998C86.998 36.458 87.9164 38.911 89.6989 40.5602C91.4676 42.1968 93.9346 42.9 96.748 42.9V40.9ZM118.038 65L117.184 64.4797L116.258 66H118.038V65ZM130.638 65V66H131.22L131.507 65.4938L130.638 65ZM137.078 53.66L137.947 54.1538L137.952 54.1451L137.957 54.1363L137.078 53.66ZM132.248 15.16L132.282 16.1594L132.284 16.1593L132.248 15.16ZM118.038 15.65L118.003 14.6506L117.038 14.6839V15.65H118.038ZM118.038 25.45H117.038V26.5L118.087 26.4488L118.038 25.45ZM126.648 25.03H127.648V23.98L126.599 24.0312L126.648 25.03ZM125.458 52.82L124.608 52.2936L124.604 52.2997L125.458 52.82ZM131.758 13.15C133.966 13.15 135.898 12.6276 137.297 11.4913C138.726 10.3308 139.478 8.62812 139.478 6.55H137.478C137.478 8.11187 136.935 9.20919 136.036 9.93871C135.108 10.6924 133.68 11.15 131.758 11.15V13.15ZM139.478 6.55C139.478 4.50217 138.723 2.80367 137.301 1.63781C135.904 0.493601 133.974 -0.0500023 131.758 -0.0500023V1.95C133.672 1.95 135.101 2.42139 136.033 3.18469C136.938 3.92633 137.478 5.02782 137.478 6.55H139.478ZM131.758 -0.0500023C129.542 -0.0500023 127.639 0.493812 126.274 1.64741C124.885 2.82116 124.178 4.52048 124.178 6.55H126.178C126.178 5.00951 126.696 3.90883 127.565 3.17508C128.457 2.42118 129.844 1.95 131.758 1.95V-0.0500023ZM124.178 6.55C124.178 8.60979 124.882 10.3134 126.277 11.4818C127.646 12.6275 129.55 13.15 131.758 13.15V11.15C129.836 11.15 128.45 10.6925 127.561 9.94824C126.699 9.22658 126.178 8.13021 126.178 6.55H124.178ZM118.038 66H130.638V64H118.038V66ZM131.507 65.4938L137.947 54.1538L136.208 53.1662L129.768 64.5062L131.507 65.4938ZM137.957 54.1363C138.952 52.2997 139.268 50.8741 139.268 48.9H137.268C137.268 50.5659 137.024 51.6603 136.199 53.1837L137.957 54.1363ZM139.268 48.9V20.97H137.268V48.9H139.268ZM139.268 20.97C139.268 18.8627 138.671 17.0806 137.396 15.8495C136.121 14.6181 134.32 14.084 132.212 14.1607L132.284 16.1593C134.026 16.096 135.234 16.5419 136.007 17.288C136.78 18.0344 137.268 19.2273 137.268 20.97H139.268ZM132.213 14.1606L118.003 14.6506L118.072 16.6494L132.282 16.1594L132.213 14.1606ZM117.038 15.65V25.45H119.038V15.65H117.038ZM118.087 26.4488L126.697 26.0288L126.599 24.0312L117.989 24.4512L118.087 26.4488ZM125.648 25.03V48.06H127.648V25.03H125.648ZM125.648 48.06C125.648 49.762 125.389 51.031 124.608 52.2936L126.308 53.3464C127.347 51.669 127.648 49.998 127.648 48.06H125.648ZM124.604 52.2997L117.184 64.4797L118.892 65.5203L126.312 53.3403L124.604 52.2997ZM181.608 38.54L182.599 38.6757L182.755 37.54H181.608V38.54ZM170.408 38.54V37.54H169.637L169.441 38.2855L170.408 38.54ZM153.538 35.67V34.67H152.538V35.67H153.538ZM180.348 35.67V36.67H181.348V35.67H180.348ZM153.538 29.37H152.538V30.37H153.538V29.37ZM169.848 29.37V30.37H170.848V29.37H169.848ZM142.038 32.87C142.038 38.0768 143.66 43.0473 147.123 46.7243C150.598 50.4139 155.831 52.7 162.848 52.7V50.7C156.286 50.7 151.614 48.5761 148.579 45.3532C145.532 42.1177 144.038 37.6732 144.038 32.87H142.038ZM162.848 52.7C175.589 52.7 181.83 44.29 182.599 38.6757L180.618 38.4043C179.987 43.01 174.608 50.7 162.848 50.7V52.7ZM181.608 37.54H170.408V39.54H181.608V37.54ZM169.441 38.2855C168.924 40.2523 166.645 41.6 162.848 41.6V43.6C166.892 43.6 170.493 42.1477 171.375 38.7945L169.441 38.2855ZM162.848 41.6C159.797 41.6 157.722 40.9108 156.429 39.8766C155.167 38.8665 154.538 37.4388 154.538 35.67H152.538C152.538 37.9612 153.38 39.9985 155.18 41.4384C156.95 42.8542 159.53 43.6 162.848 43.6V41.6ZM153.538 36.67H180.348V34.67H153.538V36.67ZM181.348 35.67V32.17H179.348V35.67H181.348ZM181.348 32.17C181.348 26.5607 179.324 21.9749 175.793 18.8002C172.275 15.6363 167.347 13.95 161.658 13.95V15.95C166.96 15.95 171.377 17.5187 174.456 20.2873C177.523 23.0451 179.348 27.0693 179.348 32.17H181.348ZM161.658 13.95C155.961 13.95 151.044 15.6942 147.543 18.9809C144.033 22.275 142.038 27.0328 142.038 32.87H144.038C144.038 27.5072 145.858 23.305 148.911 20.4391C151.972 17.5658 156.365 15.95 161.658 15.95V13.95ZM154.538 29.37C154.538 28.2922 154.91 27.2719 155.885 26.4944C156.893 25.6914 158.666 25.05 161.658 25.05V23.05C158.42 23.05 156.134 23.7386 154.639 24.9306C153.111 26.1481 152.538 27.7878 152.538 29.37H154.538ZM161.658 25.05C164.65 25.05 166.444 25.6912 167.471 26.4986C168.467 27.281 168.848 28.303 168.848 29.37H170.848C170.848 27.777 170.25 26.139 168.708 24.9264C167.197 23.7388 164.897 23.05 161.658 23.05V25.05ZM169.848 28.37H153.538V30.37H169.848V28.37ZM223.369 36.37L224.368 36.4186L224.419 35.37H223.369V36.37ZM212.169 36.37V35.37H211.294L211.178 36.2378L212.169 36.37ZM212.169 30.28L211.178 30.4122L211.294 31.28H212.169V30.28ZM223.369 30.28V31.28H224.419L224.368 30.2314L223.369 30.28ZM184.079 33.29C184.079 39.4441 186.181 44.33 189.839 47.6697C193.484 50.9982 198.575 52.7 204.399 52.7V50.7C198.954 50.7 194.384 49.1118 191.187 46.1928C188.003 43.285 186.079 38.9659 186.079 33.29H184.079ZM204.399 52.7C209.398 52.7 214.239 51.3431 217.918 48.6186C221.62 45.8769 224.108 41.7732 224.368 36.4186L222.37 36.3214C222.141 41.0468 219.973 44.6081 216.728 47.0114C213.459 49.4319 209.06 50.7 204.399 50.7V52.7ZM223.369 35.37H212.169V37.37H223.369V35.37ZM211.178 36.2378C210.842 38.7573 208.526 40.9 204.399 40.9V42.9C209.233 42.9 212.656 40.2827 213.161 36.5022L211.178 36.2378ZM204.399 40.9C201.939 40.9 200.205 40.1771 199.077 38.962C197.938 37.735 197.279 35.8598 197.279 33.29H195.279C195.279 36.1802 196.021 38.61 197.612 40.3229C199.213 42.0479 201.54 42.9 204.399 42.9V40.9ZM197.279 33.29C197.279 30.7582 197.936 28.9006 199.075 27.6814C200.204 26.4731 201.939 25.75 204.399 25.75V23.75C201.54 23.75 199.215 24.6019 197.614 26.3161C196.022 28.0194 195.279 30.4318 195.279 33.29H197.279ZM204.399 25.75C208.526 25.75 210.842 27.8927 211.178 30.4122L213.161 30.1478C212.656 26.3673 209.233 23.75 204.399 23.75V25.75ZM212.169 31.28H223.369V29.28H212.169V31.28ZM224.368 30.2314C224.108 24.8768 221.62 20.7731 217.918 18.0314C214.239 15.3069 209.398 13.95 204.399 13.95V15.95C209.06 15.95 213.459 17.2181 216.728 19.6386C219.973 22.0419 222.141 25.6032 222.37 30.3286L224.368 30.2314ZM204.399 13.95C198.575 13.95 193.485 15.6518 189.84 18.9706C186.182 22.3008 184.079 27.1692 184.079 33.29H186.079C186.079 27.6508 188.001 23.3492 191.186 20.4494C194.384 17.5382 198.954 15.95 204.399 15.95V13.95ZM244.347 41.9H243.347V42.9552L244.401 42.8986L244.347 41.9ZM244.347 25.45V24.45H243.347V25.45H244.347ZM255.967 25.45V26.45H256.967V25.45H255.967ZM255.967 15.65H256.967V14.65H255.967V15.65ZM244.347 15.65H243.347V16.65H244.347V15.65ZM244.347 5.5H245.347V4.13981L244.049 4.54552L244.347 5.5ZM233.147 9L232.849 8.04552L232.147 8.26481V9H233.147ZM233.147 15.65V16.65H234.147V15.65H233.147ZM224.747 15.65V14.65H223.747V15.65H224.747ZM224.747 25.45H223.747V26.45H224.747V25.45ZM233.147 25.45H234.147V24.45H233.147V25.45ZM239.097 51.7L239.133 52.6993L239.135 52.6993L239.097 51.7ZM257.367 51L257.405 51.9993L258.367 51.9624V51H257.367ZM257.367 41.2H258.367V40.1448L257.313 40.2014L257.367 41.2ZM245.347 41.9V25.45H243.347V41.9H245.347ZM244.347 26.45H255.967V24.45H244.347V26.45ZM256.967 25.45V15.65H254.967V25.45H256.967ZM255.967 14.65H244.347V16.65H255.967V14.65ZM245.347 15.65V5.5H243.347V15.65H245.347ZM244.049 4.54552L232.849 8.04552L233.445 9.95448L244.645 6.45448L244.049 4.54552ZM232.147 9V15.65H234.147V9H232.147ZM233.147 14.65H224.747V16.65H233.147V14.65ZM223.747 15.65V25.45H225.747V15.65H223.747ZM224.747 26.45H233.147V24.45H224.747V26.45ZM232.147 25.45V45.75H234.147V25.45H232.147ZM232.147 45.75C232.147 47.848 232.721 49.6562 233.965 50.9222C235.218 52.1969 237.007 52.7766 239.133 52.6993L239.061 50.7007C237.336 50.7634 236.151 50.2931 235.391 49.5203C234.623 48.7388 234.147 47.502 234.147 45.75H232.147ZM239.135 52.6993L257.405 51.9993L257.329 50.0007L239.059 50.7007L239.135 52.6993ZM258.367 51V41.2H256.367V51H258.367ZM257.313 40.2014L244.293 40.9014L244.401 42.8986L257.421 42.1986L257.313 40.2014ZM282.783 29.93L283.094 28.9794L283.093 28.979L282.783 29.93ZM283.553 27.76H282.553V28.76H283.553V27.76ZM294.753 27.76V28.76H295.753V27.76H294.753ZM277.113 36.72L277.43 35.7713L277.427 35.7703L277.113 36.72ZM272.073 38.19H273.073V37.19H272.073V38.19ZM260.873 38.19V37.19H259.873V38.19H260.873ZM296.943 41.27C296.943 39.2835 296.516 37.6219 295.722 36.2197C294.93 34.8213 293.806 33.7366 292.494 32.854C289.917 31.1208 286.461 30.0789 283.094 28.9794L282.473 30.8806C285.966 32.021 289.089 32.9742 291.378 34.5135C292.498 35.2671 293.378 36.1381 293.982 37.205C294.583 38.2681 294.943 39.5815 294.943 41.27H296.943ZM283.093 28.979C280.261 28.0587 278.054 27.3616 276.54 26.6887C275.782 26.3519 275.278 26.0547 274.976 25.7907C274.684 25.5356 274.683 25.4067 274.683 25.38H272.683C272.683 26.1933 273.121 26.8257 273.66 27.2968C274.189 27.759 274.91 28.1531 275.727 28.5163C277.363 29.2434 279.706 29.9813 282.474 30.881L283.093 28.979ZM274.683 25.38C274.683 25.2153 274.723 25.1182 274.774 25.0461C274.83 24.9653 274.945 24.8551 275.18 24.7433C275.677 24.507 276.53 24.35 277.813 24.35V22.35C276.436 22.35 275.224 22.508 274.322 22.9367C273.857 23.1574 273.438 23.4672 273.136 23.8983C272.828 24.3381 272.683 24.8447 272.683 25.38H274.683ZM277.813 24.35C279.586 24.35 280.769 24.7854 281.49 25.3811C282.192 25.96 282.553 26.7677 282.553 27.76H284.553C284.553 26.2323 283.97 24.835 282.764 23.8389C281.578 22.8596 279.891 22.35 277.813 22.35V24.35ZM283.553 28.76H294.753V26.76H283.553V28.76ZM295.753 27.76C295.753 24.0817 294.432 20.5861 291.46 18.025C288.503 15.4765 284.025 13.95 277.883 13.95V15.95C283.712 15.95 287.669 17.3985 290.154 19.54C292.625 21.6688 293.753 24.5783 293.753 27.76H295.753ZM277.883 13.95C272.916 13.95 268.85 14.8755 265.993 16.717C263.085 18.591 261.483 21.3865 261.483 24.89H263.483C263.483 22.0935 264.717 19.919 267.076 18.398C269.487 16.8445 273.121 15.95 277.883 15.95V13.95ZM261.483 24.89C261.483 27.0488 262.036 28.8341 263.007 30.3179C263.971 31.791 265.313 32.9148 266.817 33.8155C269.777 35.5876 273.601 36.6145 276.8 37.6697L277.427 35.7703C274.046 34.6555 270.555 33.7224 267.845 32.0995C266.514 31.3027 265.432 30.3703 264.681 29.2227C263.937 28.0859 263.483 26.6862 263.483 24.89H261.483ZM276.797 37.6687C279.688 38.6321 281.495 39.1967 282.615 39.7446C283.164 40.0128 283.437 40.2274 283.576 40.3966C283.686 40.53 283.743 40.6706 283.743 40.92H285.743C285.743 40.2594 285.556 39.6562 285.121 39.1268C284.716 38.6332 284.144 38.266 283.494 37.9479C282.217 37.3233 280.209 36.6979 277.43 35.7713L276.797 37.6687ZM283.743 40.92C283.743 41.1392 283.686 41.2858 283.598 41.4044C283.501 41.5348 283.325 41.6861 283.009 41.8293C282.355 42.1259 281.301 42.3 279.843 42.3V44.3C281.396 44.3 282.792 44.1241 283.835 43.6507C284.368 43.4089 284.852 43.0702 285.204 42.5969C285.564 42.1117 285.743 41.5408 285.743 40.92H283.743ZM279.843 42.3C277.015 42.3 275.328 41.7239 274.366 40.9785C273.446 40.2652 273.073 39.3051 273.073 38.19H271.073C271.073 39.8049 271.646 41.3998 273.141 42.559C274.594 43.6861 276.792 44.3 279.843 44.3V42.3ZM272.073 37.19H260.873V39.19H272.073V37.19ZM259.873 38.19C259.873 42.5659 261.37 46.263 264.689 48.8331C267.963 51.3692 272.873 52.7 279.493 52.7V50.7C273.094 50.7 268.694 49.4058 265.913 47.2519C263.176 45.132 261.873 42.0741 261.873 38.19H259.873ZM279.493 52.7C285.678 52.7 290.036 51.5675 292.87 49.5279C295.761 47.4474 296.943 44.5138 296.943 41.27H294.943C294.943 43.9762 293.991 46.2576 291.702 47.9046C289.356 49.5925 285.489 50.7 279.493 50.7V52.7Z" fill="url(#paint0_linear_241_361)"/>
<defs>
<linearGradient id="paint0_linear_241_361" x1="-4" y1="-1" x2="25.1449" y2="128.438" gradientUnits="userSpaceOnUse">
<stop stop-color="#FF6EFF"/>
<stop offset="1" stop-color="#0AB7F6"/>
</linearGradient>
</defs>
</svg>
