<svg width="193" height="68" viewBox="0 0 193 68" fill="none" xmlns="http://www.w3.org/2000/svg">
<path d="M45.57 2.65H2.1V12.45H18.27V52H29.47V12.45H45.57V2.65ZM39.2355 33.87C39.2355 43.88 45.4655 52.7 59.0455 52.7C71.2955 52.7 77.1055 44.65 77.8055 39.54H66.6055C65.9055 42.2 62.9655 43.6 59.0455 43.6C52.6755 43.6 49.7355 40.73 49.7355 36.67H76.5455V33.17C76.5455 22.46 68.8455 15.95 57.8555 15.95C46.8655 15.95 39.2355 22.67 39.2355 33.87ZM49.7355 30.37C49.7355 27.71 51.6255 25.05 57.8555 25.05C64.0855 25.05 66.0455 27.71 66.0455 30.37H49.7355ZM81.2766 42.34C81.2766 45.98 83.1666 52.7 94.1566 52.7C104.027 52.7 107.457 47.73 108.787 41.85H111.587L109.837 46.05V46.75C109.837 50.11 111.727 52 115.087 52H122.857V42.2H117.747V32.26C117.747 20.64 109.207 15.95 99.4766 15.95C89.6066 15.95 81.9766 21.2 81.9766 30.16H92.4766C92.4766 26.94 94.9966 25.05 99.4766 25.05C104.307 25.05 106.547 26.8 106.547 29.67L95.4166 31.21C84.9166 32.68 81.2766 36.25 81.2766 42.34ZM92.4766 40.24C92.4766 38.21 94.1566 37.72 97.5166 37.23L106.547 35.97C106.547 40.31 102.487 42.9 96.3266 42.9C94.4366 42.9 92.4766 42.27 92.4766 40.24ZM174.362 15.95C167.502 15.95 164.352 20.22 162.952 26.52H160.922C159.872 20.36 157.072 15.95 150.422 15.95C143.562 15.95 140.342 20.22 138.942 26.52H136.142L138.242 20.22V16.65H127.042V52H138.242V39.61C138.242 31.07 139.642 25.75 145.732 25.75C149.862 25.75 150.982 27.64 150.982 34.36V52H162.182V39.61C162.182 31.07 163.582 25.75 169.672 25.75C173.802 25.75 174.922 27.64 174.922 34.36V52H186.122V33.59C186.122 24.07 183.392 15.95 174.362 15.95Z" fill="white"/>
<path d="M45.57 2.65H46.57V1.65H45.57V2.65ZM2.1 2.65V1.65H1.1V2.65H2.1ZM2.1 12.45H1.1V13.45H2.1V12.45ZM18.27 12.45H19.27V11.45H18.27V12.45ZM18.27 52H17.27V53H18.27V52ZM29.47 52V53H30.47V52H29.47ZM29.47 12.45V11.45H28.47V12.45H29.47ZM45.57 12.45V13.45H46.57V12.45H45.57ZM45.57 1.65H2.1V3.65H45.57V1.65ZM1.1 2.65V12.45H3.1V2.65H1.1ZM2.1 13.45H18.27V11.45H2.1V13.45ZM17.27 12.45V52H19.27V12.45H17.27ZM18.27 53H29.47V51H18.27V53ZM30.47 52V12.45H28.47V52H30.47ZM29.47 13.45H45.57V11.45H29.47V13.45ZM46.57 12.45V2.65H44.57V12.45H46.57ZM77.8055 39.54L78.7963 39.6757L78.9519 38.54H77.8055V39.54ZM66.6055 39.54V38.54H65.8347L65.6385 39.2855L66.6055 39.54ZM49.7355 36.67V35.67H48.7355V36.67H49.7355ZM76.5455 36.67V37.67H77.5455V36.67H76.5455ZM49.7355 30.37H48.7355V31.37H49.7355V30.37ZM66.0455 30.37V31.37H67.0455V30.37H66.0455ZM38.2355 33.87C38.2355 39.0768 39.8571 44.0473 43.3201 47.7243C46.7948 51.4139 52.0283 53.7 59.0455 53.7V51.7C52.4828 51.7 47.8113 49.5761 44.776 46.3532C41.729 43.1177 40.2355 38.6732 40.2355 33.87H38.2355ZM59.0455 53.7C71.7862 53.7 78.0272 45.29 78.7963 39.6757L76.8148 39.4043C76.1839 44.01 70.8049 51.7 59.0455 51.7V53.7ZM77.8055 38.54H66.6055V40.54H77.8055V38.54ZM65.6385 39.2855C65.1209 41.2523 62.8423 42.6 59.0455 42.6V44.6C63.0888 44.6 66.6902 43.1477 67.5726 39.7945L65.6385 39.2855ZM59.0455 42.6C55.9943 42.6 53.9192 41.9108 52.6265 40.8766C51.3638 39.8665 50.7355 38.4388 50.7355 36.67H48.7355C48.7355 38.9612 49.5772 40.9985 51.3771 42.4384C53.1469 43.8542 55.7268 44.6 59.0455 44.6V42.6ZM49.7355 37.67H76.5455V35.67H49.7355V37.67ZM77.5455 36.67V33.17H75.5455V36.67H77.5455ZM77.5455 33.17C77.5455 27.5607 75.521 22.9749 71.9904 19.8002C68.4719 16.6363 63.544 14.95 57.8555 14.95V16.95C63.1571 16.95 67.5742 18.5187 70.6532 21.2873C73.7201 24.0451 75.5455 28.0693 75.5455 33.17H77.5455ZM57.8555 14.95C52.1584 14.95 47.2413 16.6942 43.7399 19.9809C40.2305 23.275 38.2355 28.0328 38.2355 33.87H40.2355C40.2355 28.5072 42.0556 24.305 45.1087 21.4391C48.1698 18.5658 52.5627 16.95 57.8555 16.95V14.95ZM50.7355 30.37C50.7355 29.2922 51.1075 28.2719 52.0827 27.4944C53.0899 26.6914 54.8634 26.05 57.8555 26.05V24.05C54.6177 24.05 52.3312 24.7386 50.8359 25.9306C49.3086 27.1481 48.7355 28.7878 48.7355 30.37H50.7355ZM57.8555 26.05C60.847 26.05 62.6417 26.6912 63.6687 27.4986C64.6639 28.281 65.0455 29.303 65.0455 30.37H67.0455C67.0455 28.777 66.4472 27.139 64.9049 25.9264C63.3944 24.7388 61.0941 24.05 57.8555 24.05V26.05ZM66.0455 29.37H49.7355V31.37H66.0455V29.37ZM108.787 41.85V40.85H107.987L107.811 41.6294L108.787 41.85ZM111.587 41.85L112.51 42.2346L113.087 40.85H111.587V41.85ZM109.837 46.05L108.913 45.6654L108.837 45.85V46.05H109.837ZM122.857 52V53H123.857V52H122.857ZM122.857 42.2H123.857V41.2H122.857V42.2ZM117.747 42.2H116.747V43.2H117.747V42.2ZM81.9766 30.16H80.9766V31.16H81.9766V30.16ZM92.4766 30.16V31.16H93.4766V30.16H92.4766ZM106.547 29.67L106.684 30.6606L107.547 30.5412V29.67H106.547ZM95.4166 31.21L95.2795 30.2194L95.2779 30.2197L95.4166 31.21ZM97.5166 37.23L97.3784 36.2396L97.3723 36.2405L97.5166 37.23ZM106.547 35.97H107.547V34.8208L106.408 34.9796L106.547 35.97ZM80.2766 42.34C80.2766 44.3081 80.7843 47.1631 82.8389 49.5391C84.92 51.9457 88.4476 53.7 94.1566 53.7V51.7C88.8755 51.7 85.9631 50.0943 84.3517 48.2309C82.7139 46.3369 82.2766 44.0119 82.2766 42.34H80.2766ZM94.1566 53.7C99.2615 53.7 102.845 52.4115 105.333 50.2322C107.81 48.0628 109.072 45.1221 109.762 42.0706L107.811 41.6294C107.171 44.4579 106.054 46.9422 104.015 48.7278C101.988 50.5035 98.9216 51.7 94.1566 51.7V53.7ZM108.787 42.85H111.587V40.85H108.787V42.85ZM110.663 41.4654L108.913 45.6654L110.76 46.4346L112.51 42.2346L110.663 41.4654ZM108.837 46.05V46.75H110.837V46.05H108.837ZM108.837 46.75C108.837 48.6141 109.364 50.2116 110.494 51.3421C111.625 52.4726 113.222 53 115.087 53V51C113.591 51 112.563 50.5824 111.909 49.9279C111.254 49.2734 110.837 48.2459 110.837 46.75H108.837ZM115.087 53H122.857V51H115.087V53ZM123.857 52V42.2H121.857V52H123.857ZM122.857 41.2H117.747V43.2H122.857V41.2ZM118.747 42.2V32.26H116.747V42.2H118.747ZM118.747 32.26C118.747 26.1768 116.496 21.7949 112.877 18.9603C109.295 16.1547 104.484 14.95 99.4766 14.95V16.95C104.199 16.95 108.523 18.0903 111.644 20.5347C114.727 22.9501 116.747 26.7232 116.747 32.26H118.747ZM99.4766 14.95C94.3756 14.95 89.769 16.3056 86.413 18.9043C83.0328 21.5219 80.9766 25.3637 80.9766 30.16H82.9766C82.9766 25.9963 84.7354 22.7331 87.6376 20.4857C90.5641 18.2194 94.7075 16.95 99.4766 16.95V14.95ZM81.9766 31.16H92.4766V29.16H81.9766V31.16ZM93.4766 30.16C93.4766 28.8439 93.9741 27.8759 94.889 27.2031C95.8455 26.4998 97.3575 26.05 99.4766 26.05V24.05C97.1156 24.05 95.1276 24.5452 93.7042 25.5918C92.239 26.6691 91.4766 28.2561 91.4766 30.16H93.4766ZM99.4766 26.05C101.797 26.05 103.332 26.4751 104.258 27.1091C105.126 27.7027 105.547 28.5353 105.547 29.67H107.547C107.547 27.9347 106.847 26.4573 105.387 25.4584C103.987 24.4999 101.986 24.05 99.4766 24.05V26.05ZM106.41 28.6794L95.2795 30.2194L95.5536 32.2006L106.684 30.6606L106.41 28.6794ZM95.2779 30.2197C89.9665 30.9633 86.2089 32.2569 83.7719 34.2718C81.2704 36.34 80.2766 39.0672 80.2766 42.34H82.2766C82.2766 39.5228 83.1028 37.42 85.0463 35.8132C87.0543 34.153 90.3666 32.9267 95.5552 32.2003L95.2779 30.2197ZM93.4766 40.24C93.4766 39.8736 93.5509 39.6554 93.6417 39.5087C93.7336 39.3603 93.8932 39.2034 94.1985 39.0444C94.8635 38.698 95.9518 38.4688 97.6609 38.2195L97.3723 36.2405C95.7214 36.4812 94.2896 36.742 93.2746 37.2706C92.7399 37.5491 92.2695 37.9259 91.9414 38.4556C91.6122 38.9871 91.4766 39.5914 91.4766 40.24H93.4766ZM97.6548 38.2204L106.685 36.9604L106.408 34.9796L97.3784 36.2396L97.6548 38.2204ZM105.547 35.97C105.547 37.7784 104.722 39.2103 103.192 40.2304C101.624 41.2756 99.2843 41.9 96.3266 41.9V43.9C99.5289 43.9 102.299 43.2294 104.301 41.8946C106.341 40.5347 107.547 38.5016 107.547 35.97H105.547ZM96.3266 41.9C95.4649 41.9 94.6993 41.752 94.1856 41.4611C93.7364 41.2067 93.4766 40.8547 93.4766 40.24H91.4766C91.4766 41.6553 92.1968 42.6333 93.2001 43.2014C94.1388 43.733 95.2982 43.9 96.3266 43.9V41.9ZM162.952 26.52V27.52H163.754L163.928 26.7369L162.952 26.52ZM160.922 26.52L159.936 26.688L160.078 27.52H160.922V26.52ZM138.942 26.52V27.52H139.744L139.918 26.7369L138.942 26.52ZM136.142 26.52L135.193 26.2038L134.754 27.52H136.142V26.52ZM138.242 20.22L139.19 20.5362L139.242 20.3823V20.22H138.242ZM138.242 16.65H139.242V15.65H138.242V16.65ZM127.042 16.65V15.65H126.042V16.65H127.042ZM127.042 52H126.042V53H127.042V52ZM138.242 52V53H139.242V52H138.242ZM150.982 52H149.982V53H150.982V52ZM162.182 52V53H163.182V52H162.182ZM174.922 52H173.922V53H174.922V52ZM186.122 52V53H187.122V52H186.122ZM174.362 14.95C170.703 14.95 167.929 16.0991 165.895 18.1722C163.892 20.2147 162.696 23.0622 161.976 26.3031L163.928 26.7369C164.608 23.6778 165.687 21.2403 167.323 19.5728C168.929 17.9359 171.161 16.95 174.362 16.95V14.95ZM162.952 25.52H160.922V27.52H162.952V25.52ZM161.908 26.352C161.368 23.1873 160.36 20.3335 158.52 18.2611C156.644 16.1484 153.995 14.95 150.422 14.95V16.95C153.498 16.95 155.575 17.9566 157.024 19.5889C158.509 21.2615 159.425 23.6926 159.936 26.688L161.908 26.352ZM150.422 14.95C146.763 14.95 143.975 16.0986 141.924 18.1688C139.902 20.2102 138.687 23.0577 137.966 26.3031L139.918 26.7369C140.597 23.6823 141.692 21.2448 143.345 19.5762C144.969 17.9364 147.22 16.95 150.422 16.95V14.95ZM138.942 25.52H136.142V27.52H138.942V25.52ZM137.09 26.8362L139.19 20.5362L137.293 19.9038L135.193 26.2038L137.09 26.8362ZM139.242 20.22V16.65H137.242V20.22H139.242ZM138.242 15.65H127.042V17.65H138.242V15.65ZM126.042 16.65V52H128.042V16.65H126.042ZM127.042 53H138.242V51H127.042V53ZM139.242 52V39.61H137.242V52H139.242ZM139.242 39.61C139.242 35.3477 139.599 32.0792 140.61 29.898C141.104 28.8323 141.737 28.0651 142.531 27.5569C143.326 27.0486 144.358 26.75 145.732 26.75V24.75C144.061 24.75 142.634 25.1164 141.453 25.8724C140.272 26.6286 139.413 27.7252 138.796 29.057C137.584 31.6708 137.242 35.3322 137.242 39.61H139.242ZM145.732 26.75C147.654 26.75 148.522 27.1823 149.051 28.0537C149.683 29.0967 149.982 30.9762 149.982 34.36H151.982C151.982 31.0238 151.72 28.5983 150.761 27.0163C149.697 25.2627 147.939 24.75 145.732 24.75V26.75ZM149.982 34.36V52H151.982V34.36H149.982ZM150.982 53H162.182V51H150.982V53ZM163.182 52V39.61H161.182V52H163.182ZM163.182 39.61C163.182 35.3477 163.539 32.0792 164.55 29.898C165.044 28.8323 165.677 28.0651 166.471 27.5569C167.266 27.0486 168.298 26.75 169.672 26.75V24.75C168.001 24.75 166.574 25.1164 165.393 25.8724C164.212 26.6286 163.353 27.7252 162.736 29.057C161.524 31.6708 161.182 35.3322 161.182 39.61H163.182ZM169.672 26.75C171.594 26.75 172.462 27.1823 172.991 28.0537C173.623 29.0967 173.922 30.9762 173.922 34.36H175.922C175.922 31.0238 175.66 28.5983 174.701 27.0163C173.637 25.2627 171.879 24.75 169.672 24.75V26.75ZM173.922 34.36V52H175.922V34.36H173.922ZM174.922 53H186.122V51H174.922V53ZM187.122 52V33.59H185.122V52H187.122ZM187.122 33.59C187.122 28.7664 186.436 24.1516 184.5 20.7097C182.518 17.1865 179.251 14.95 174.362 14.95V16.95C178.502 16.95 181.116 18.7735 182.756 21.6903C184.443 24.6884 185.122 28.8936 185.122 33.59H187.122Z" fill="url(#paint0_linear_241_315)"/>
<path d="M48.57 2.65H5.1V12.45H21.27V52H32.47V12.45H48.57V2.65ZM42.2355 33.87C42.2355 43.88 48.4655 52.7 62.0455 52.7C74.2955 52.7 80.1055 44.65 80.8055 39.54H69.6055C68.9055 42.2 65.9655 43.6 62.0455 43.6C55.6755 43.6 52.7355 40.73 52.7355 36.67H79.5455V33.17C79.5455 22.46 71.8455 15.95 60.8555 15.95C49.8655 15.95 42.2355 22.67 42.2355 33.87ZM52.7355 30.37C52.7355 27.71 54.6255 25.05 60.8555 25.05C67.0855 25.05 69.0455 27.71 69.0455 30.37H52.7355ZM84.2766 42.34C84.2766 45.98 86.1666 52.7 97.1566 52.7C107.027 52.7 110.457 47.73 111.787 41.85H114.587L112.837 46.05V46.75C112.837 50.11 114.727 52 118.087 52H125.857V42.2H120.747V32.26C120.747 20.64 112.207 15.95 102.477 15.95C92.6066 15.95 84.9766 21.2 84.9766 30.16H95.4766C95.4766 26.94 97.9966 25.05 102.477 25.05C107.307 25.05 109.547 26.8 109.547 29.67L98.4166 31.21C87.9166 32.68 84.2766 36.25 84.2766 42.34ZM95.4766 40.24C95.4766 38.21 97.1566 37.72 100.517 37.23L109.547 35.97C109.547 40.31 105.487 42.9 99.3266 42.9C97.4366 42.9 95.4766 42.27 95.4766 40.24ZM177.362 15.95C170.502 15.95 167.352 20.22 165.952 26.52H163.922C162.872 20.36 160.072 15.95 153.422 15.95C146.562 15.95 143.342 20.22 141.942 26.52H139.142L141.242 20.22V16.65H130.042V52H141.242V39.61C141.242 31.07 142.642 25.75 148.732 25.75C152.862 25.75 153.982 27.64 153.982 34.36V52H165.182V39.61C165.182 31.07 166.582 25.75 172.672 25.75C176.802 25.75 177.922 27.64 177.922 34.36V52H189.122V33.59C189.122 24.07 186.392 15.95 177.362 15.95Z" fill="white"/>
<path d="M48.57 2.65H49.57V1.65H48.57V2.65ZM5.1 2.65V1.65H4.1V2.65H5.1ZM5.1 12.45H4.1V13.45H5.1V12.45ZM21.27 12.45H22.27V11.45H21.27V12.45ZM21.27 52H20.27V53H21.27V52ZM32.47 52V53H33.47V52H32.47ZM32.47 12.45V11.45H31.47V12.45H32.47ZM48.57 12.45V13.45H49.57V12.45H48.57ZM48.57 1.65H5.1V3.65H48.57V1.65ZM4.1 2.65V12.45H6.1V2.65H4.1ZM5.1 13.45H21.27V11.45H5.1V13.45ZM20.27 12.45V52H22.27V12.45H20.27ZM21.27 53H32.47V51H21.27V53ZM33.47 52V12.45H31.47V52H33.47ZM32.47 13.45H48.57V11.45H32.47V13.45ZM49.57 12.45V2.65H47.57V12.45H49.57ZM80.8055 39.54L81.7963 39.6757L81.9519 38.54H80.8055V39.54ZM69.6055 39.54V38.54H68.8347L68.6385 39.2855L69.6055 39.54ZM52.7355 36.67V35.67H51.7355V36.67H52.7355ZM79.5455 36.67V37.67H80.5455V36.67H79.5455ZM52.7355 30.37H51.7355V31.37H52.7355V30.37ZM69.0455 30.37V31.37H70.0455V30.37H69.0455ZM41.2355 33.87C41.2355 39.0768 42.8571 44.0473 46.3201 47.7243C49.7948 51.4139 55.0283 53.7 62.0455 53.7V51.7C55.4828 51.7 50.8113 49.5761 47.776 46.3532C44.729 43.1177 43.2355 38.6732 43.2355 33.87H41.2355ZM62.0455 53.7C74.7862 53.7 81.0272 45.29 81.7963 39.6757L79.8148 39.4043C79.1839 44.01 73.8049 51.7 62.0455 51.7V53.7ZM80.8055 38.54H69.6055V40.54H80.8055V38.54ZM68.6385 39.2855C68.1209 41.2523 65.8423 42.6 62.0455 42.6V44.6C66.0888 44.6 69.6902 43.1477 70.5726 39.7945L68.6385 39.2855ZM62.0455 42.6C58.9943 42.6 56.9192 41.9108 55.6265 40.8766C54.3638 39.8665 53.7355 38.4388 53.7355 36.67H51.7355C51.7355 38.9612 52.5772 40.9985 54.3771 42.4384C56.1469 43.8542 58.7268 44.6 62.0455 44.6V42.6ZM52.7355 37.67H79.5455V35.67H52.7355V37.67ZM80.5455 36.67V33.17H78.5455V36.67H80.5455ZM80.5455 33.17C80.5455 27.5607 78.521 22.9749 74.9904 19.8002C71.4719 16.6363 66.544 14.95 60.8555 14.95V16.95C66.1571 16.95 70.5742 18.5187 73.6532 21.2873C76.7201 24.0451 78.5455 28.0693 78.5455 33.17H80.5455ZM60.8555 14.95C55.1584 14.95 50.2413 16.6942 46.7399 19.9809C43.2305 23.275 41.2355 28.0328 41.2355 33.87H43.2355C43.2355 28.5072 45.0556 24.305 48.1087 21.4391C51.1698 18.5658 55.5627 16.95 60.8555 16.95V14.95ZM53.7355 30.37C53.7355 29.2922 54.1075 28.2719 55.0827 27.4944C56.0899 26.6914 57.8634 26.05 60.8555 26.05V24.05C57.6177 24.05 55.3312 24.7386 53.8359 25.9306C52.3086 27.1481 51.7355 28.7878 51.7355 30.37H53.7355ZM60.8555 26.05C63.847 26.05 65.6417 26.6912 66.6687 27.4986C67.6639 28.281 68.0455 29.303 68.0455 30.37H70.0455C70.0455 28.777 69.4472 27.139 67.9049 25.9264C66.3944 24.7388 64.0941 24.05 60.8555 24.05V26.05ZM69.0455 29.37H52.7355V31.37H69.0455V29.37ZM111.787 41.85V40.85H110.987L110.811 41.6294L111.787 41.85ZM114.587 41.85L115.51 42.2346L116.087 40.85H114.587V41.85ZM112.837 46.05L111.913 45.6654L111.837 45.85V46.05H112.837ZM125.857 52V53H126.857V52H125.857ZM125.857 42.2H126.857V41.2H125.857V42.2ZM120.747 42.2H119.747V43.2H120.747V42.2ZM84.9766 30.16H83.9766V31.16H84.9766V30.16ZM95.4766 30.16V31.16H96.4766V30.16H95.4766ZM109.547 29.67L109.684 30.6606L110.547 30.5412V29.67H109.547ZM98.4166 31.21L98.2795 30.2194L98.2779 30.2197L98.4166 31.21ZM100.517 37.23L100.378 36.2396L100.372 36.2405L100.517 37.23ZM109.547 35.97H110.547V34.8208L109.408 34.9796L109.547 35.97ZM83.2766 42.34C83.2766 44.3081 83.7843 47.1631 85.8389 49.5391C87.92 51.9457 91.4476 53.7 97.1566 53.7V51.7C91.8755 51.7 88.9631 50.0943 87.3517 48.2309C85.7139 46.3369 85.2766 44.0119 85.2766 42.34H83.2766ZM97.1566 53.7C102.262 53.7 105.845 52.4115 108.333 50.2322C110.81 48.0628 112.072 45.1221 112.762 42.0706L110.811 41.6294C110.171 44.4579 109.054 46.9422 107.015 48.7278C104.988 50.5035 101.922 51.7 97.1566 51.7V53.7ZM111.787 42.85H114.587V40.85H111.787V42.85ZM113.663 41.4654L111.913 45.6654L113.76 46.4346L115.51 42.2346L113.663 41.4654ZM111.837 46.05V46.75H113.837V46.05H111.837ZM111.837 46.75C111.837 48.6141 112.364 50.2116 113.494 51.3421C114.625 52.4726 116.222 53 118.087 53V51C116.591 51 115.563 50.5824 114.909 49.9279C114.254 49.2734 113.837 48.2459 113.837 46.75H111.837ZM118.087 53H125.857V51H118.087V53ZM126.857 52V42.2H124.857V52H126.857ZM125.857 41.2H120.747V43.2H125.857V41.2ZM121.747 42.2V32.26H119.747V42.2H121.747ZM121.747 32.26C121.747 26.1768 119.496 21.7949 115.877 18.9603C112.295 16.1547 107.484 14.95 102.477 14.95V16.95C107.199 16.95 111.523 18.0903 114.644 20.5347C117.727 22.9501 119.747 26.7232 119.747 32.26H121.747ZM102.477 14.95C97.3756 14.95 92.769 16.3056 89.413 18.9043C86.0328 21.5219 83.9766 25.3637 83.9766 30.16H85.9766C85.9766 25.9963 87.7354 22.7331 90.6376 20.4857C93.5641 18.2194 97.7075 16.95 102.477 16.95V14.95ZM84.9766 31.16H95.4766V29.16H84.9766V31.16ZM96.4766 30.16C96.4766 28.8439 96.9741 27.8759 97.889 27.2031C98.8455 26.4998 100.358 26.05 102.477 26.05V24.05C100.116 24.05 98.1276 24.5452 96.7042 25.5918C95.239 26.6691 94.4766 28.2561 94.4766 30.16H96.4766ZM102.477 26.05C104.797 26.05 106.332 26.4751 107.258 27.1091C108.126 27.7027 108.547 28.5353 108.547 29.67H110.547C110.547 27.9347 109.847 26.4573 108.387 25.4584C106.987 24.4999 104.986 24.05 102.477 24.05V26.05ZM109.41 28.6794L98.2795 30.2194L98.5536 32.2006L109.684 30.6606L109.41 28.6794ZM98.2779 30.2197C92.9665 30.9633 89.2089 32.2569 86.7719 34.2718C84.2704 36.34 83.2766 39.0672 83.2766 42.34H85.2766C85.2766 39.5228 86.1028 37.42 88.0463 35.8132C90.0543 34.153 93.3666 32.9267 98.5552 32.2003L98.2779 30.2197ZM96.4766 40.24C96.4766 39.8736 96.5509 39.6554 96.6417 39.5087C96.7336 39.3603 96.8932 39.2034 97.1985 39.0444C97.8635 38.698 98.9518 38.4688 100.661 38.2195L100.372 36.2405C98.7214 36.4812 97.2896 36.742 96.2746 37.2706C95.7399 37.5491 95.2695 37.9259 94.9414 38.4556C94.6122 38.9871 94.4766 39.5914 94.4766 40.24H96.4766ZM100.655 38.2204L109.685 36.9604L109.408 34.9796L100.378 36.2396L100.655 38.2204ZM108.547 35.97C108.547 37.7784 107.722 39.2103 106.192 40.2304C104.624 41.2756 102.284 41.9 99.3266 41.9V43.9C102.529 43.9 105.299 43.2294 107.301 41.8946C109.341 40.5347 110.547 38.5016 110.547 35.97H108.547ZM99.3266 41.9C98.4649 41.9 97.6993 41.752 97.1856 41.4611C96.7364 41.2067 96.4766 40.8547 96.4766 40.24H94.4766C94.4766 41.6553 95.1968 42.6333 96.2001 43.2014C97.1388 43.733 98.2982 43.9 99.3266 43.9V41.9ZM165.952 26.52V27.52H166.754L166.928 26.7369L165.952 26.52ZM163.922 26.52L162.936 26.688L163.078 27.52H163.922V26.52ZM141.942 26.52V27.52H142.744L142.918 26.7369L141.942 26.52ZM139.142 26.52L138.193 26.2038L137.754 27.52H139.142V26.52ZM141.242 20.22L142.19 20.5362L142.242 20.3823V20.22H141.242ZM141.242 16.65H142.242V15.65H141.242V16.65ZM130.042 16.65V15.65H129.042V16.65H130.042ZM130.042 52H129.042V53H130.042V52ZM141.242 52V53H142.242V52H141.242ZM153.982 52H152.982V53H153.982V52ZM165.182 52V53H166.182V52H165.182ZM177.922 52H176.922V53H177.922V52ZM189.122 52V53H190.122V52H189.122ZM177.362 14.95C173.703 14.95 170.929 16.0991 168.895 18.1722C166.892 20.2147 165.696 23.0622 164.976 26.3031L166.928 26.7369C167.608 23.6778 168.687 21.2403 170.323 19.5728C171.929 17.9359 174.161 16.95 177.362 16.95V14.95ZM165.952 25.52H163.922V27.52H165.952V25.52ZM164.908 26.352C164.368 23.1873 163.36 20.3335 161.52 18.2611C159.644 16.1484 156.995 14.95 153.422 14.95V16.95C156.498 16.95 158.575 17.9566 160.024 19.5889C161.509 21.2615 162.425 23.6926 162.936 26.688L164.908 26.352ZM153.422 14.95C149.763 14.95 146.975 16.0986 144.924 18.1688C142.902 20.2102 141.687 23.0577 140.966 26.3031L142.918 26.7369C143.597 23.6823 144.692 21.2448 146.345 19.5762C147.969 17.9364 150.22 16.95 153.422 16.95V14.95ZM141.942 25.52H139.142V27.52H141.942V25.52ZM140.09 26.8362L142.19 20.5362L140.293 19.9038L138.193 26.2038L140.09 26.8362ZM142.242 20.22V16.65H140.242V20.22H142.242ZM141.242 15.65H130.042V17.65H141.242V15.65ZM129.042 16.65V52H131.042V16.65H129.042ZM130.042 53H141.242V51H130.042V53ZM142.242 52V39.61H140.242V52H142.242ZM142.242 39.61C142.242 35.3477 142.599 32.0792 143.61 29.898C144.104 28.8323 144.737 28.0651 145.531 27.5569C146.326 27.0486 147.358 26.75 148.732 26.75V24.75C147.061 24.75 145.634 25.1164 144.453 25.8724C143.272 26.6286 142.413 27.7252 141.796 29.057C140.584 31.6708 140.242 35.3322 140.242 39.61H142.242ZM148.732 26.75C150.654 26.75 151.522 27.1823 152.051 28.0537C152.683 29.0967 152.982 30.9762 152.982 34.36H154.982C154.982 31.0238 154.72 28.5983 153.761 27.0163C152.697 25.2627 150.939 24.75 148.732 24.75V26.75ZM152.982 34.36V52H154.982V34.36H152.982ZM153.982 53H165.182V51H153.982V53ZM166.182 52V39.61H164.182V52H166.182ZM166.182 39.61C166.182 35.3477 166.539 32.0792 167.55 29.898C168.044 28.8323 168.677 28.0651 169.471 27.5569C170.266 27.0486 171.298 26.75 172.672 26.75V24.75C171.001 24.75 169.574 25.1164 168.393 25.8724C167.212 26.6286 166.353 27.7252 165.736 29.057C164.524 31.6708 164.182 35.3322 164.182 39.61H166.182ZM172.672 26.75C174.594 26.75 175.462 27.1823 175.991 28.0537C176.623 29.0967 176.922 30.9762 176.922 34.36H178.922C178.922 31.0238 178.66 28.5983 177.701 27.0163C176.637 25.2627 174.879 24.75 172.672 24.75V26.75ZM176.922 34.36V52H178.922V34.36H176.922ZM177.922 53H189.122V51H177.922V53ZM190.122 52V33.59H188.122V52H190.122ZM190.122 33.59C190.122 28.7664 189.436 24.1516 187.5 20.7097C185.518 17.1865 182.251 14.95 177.362 14.95V16.95C181.502 16.95 184.116 18.7735 185.756 21.6903C187.443 24.6884 188.122 28.8936 188.122 33.59H190.122Z" fill="url(#paint1_linear_241_315)"/>
<defs>
<linearGradient id="paint0_linear_241_315" x1="0" y1="0" x2="43.147" y2="120.558" gradientUnits="userSpaceOnUse">
<stop stop-color="#FF6EFF"/>
<stop offset="1" stop-color="#0AB7F6"/>
</linearGradient>
<linearGradient id="paint1_linear_241_315" x1="3" y1="0" x2="46.147" y2="120.558" gradientUnits="userSpaceOnUse">
<stop stop-color="#FF6EFF"/>
<stop offset="1" stop-color="#0AB7F6"/>
</linearGradient>
</defs>
</svg>
