<svg width="1512" height="1817" viewBox="0 0 1512 1817" fill="none" xmlns="http://www.w3.org/2000/svg">
<g opacity="0.45">
<path d="M183.515 903.067L183.548 902.87L183.515 903.067ZM1567.09 910.766L1567.25 910.64L1567.09 910.766ZM-249.605 1028.8C-199.513 971.005 -42.7422 864.945 183.481 903.264L183.548 902.87C-42.8306 864.524 -199.736 970.652 -249.908 1028.54L-249.605 1028.8ZM183.481 903.264C254.204 915.244 302.293 920.646 336.118 921.717C369.942 922.787 389.517 919.525 403.203 914.166C416.883 908.809 424.675 901.352 434.887 894.102C445.102 886.851 457.791 879.76 481.328 875.072L481.25 874.68C457.653 879.379 444.912 886.495 434.656 893.776C424.397 901.059 416.677 908.46 403.057 913.794C389.442 919.125 369.929 922.386 336.13 921.317C302.332 920.247 254.264 914.848 183.548 902.87L183.481 903.264ZM481.328 875.072C504.854 870.387 532.569 873.332 562.38 879.862C592.19 886.391 624.071 896.499 655.929 906.124C687.782 915.749 719.61 924.89 749.295 929.478C778.978 934.065 806.539 934.102 829.852 925.499L829.713 925.124C806.494 933.693 779.011 933.665 749.356 929.082C719.703 924.5 687.899 915.366 656.045 905.741C624.196 896.119 592.295 886.004 562.466 879.471C532.638 872.938 504.858 869.978 481.25 874.68L481.328 875.072ZM829.852 925.499C922.913 891.155 1022.39 870.642 1100.39 912.655L1100.58 912.302C1022.41 870.199 922.779 890.778 829.713 925.124L829.852 925.499ZM1100.39 912.655C1110.2 917.936 1123.18 919.775 1138.58 919.227C1153.98 918.679 1171.82 915.742 1191.35 911.453C1210.89 907.164 1232.12 901.521 1254.32 895.557C1276.52 889.593 1299.67 883.307 1323.05 877.732C1369.82 866.581 1417.46 858.275 1460.08 861.059C1502.7 863.842 1540.27 877.71 1566.94 910.891L1567.25 910.64C1540.49 877.346 1502.79 863.448 1460.11 860.66C1417.42 857.872 1369.73 866.19 1322.96 877.343C1299.57 882.92 1276.41 889.207 1254.22 895.171C1232.02 901.135 1210.79 906.776 1191.27 911.063C1171.74 915.35 1153.93 918.28 1138.56 918.827C1123.2 919.374 1110.29 917.535 1100.58 912.302L1100.39 912.655ZM1566.94 910.891C1652.47 1017.33 1755.03 1007.04 1795.64 988.557L1795.48 988.193C1755.01 1006.61 1652.65 1016.92 1567.25 910.64L1566.94 910.891Z" fill="#FF6EFF"/>
<path d="M-214.355 917.531C-204.84 909.894 -174.725 895.154 -130.388 897.288C-74.9667 899.955 -19.957 958.434 50.8458 933.419C121.649 908.404 114.285 841.628 194.557 873.464C274.829 905.301 367.977 938.973 455.358 925.993C542.739 913.014 555.037 828.59 633.519 869.165C712.002 909.739 674.649 943.651 769.311 923.394C863.974 903.137 840.799 893.795 890.725 907.075C940.65 920.354 969.926 914.796 1019.15 912.637C1068.37 910.478 1079.87 865.24 1140.67 885.861C1201.47 906.482 1215.74 901.063 1262.39 898.537C1309.03 896.01 1394.91 820.355 1421.37 845.502C1447.82 870.649 1523.11 883.048 1552.17 880.294C1581.24 877.54 1572.43 870.433 1630.45 911.599" stroke="#0AB7F6" stroke-width="0.4"/>
<path d="M1742.25 884.062C1732.38 876.984 1700.87 863.651 1653.82 866.947C1595.01 871.066 1535.07 928.857 1460.74 906.781C1386.4 884.706 1396.08 820.271 1310.11 853.144C1224.15 886.016 1124.49 921.016 1032.24 910.982C939.999 900.947 929.333 820.09 845.019 861.317C760.705 902.544 799.341 934.115 699.585 917.285C599.829 900.455 624.652 890.82 571.368 904.993C518.084 919.165 487.213 914.64 435.109 913.944C383.005 913.247 372.088 870.058 307.07 891.597C242.053 913.136 227.08 908.325 177.716 907.203C128.351 906.08 39.4603 835.719 10.718 860.649C-18.0243 885.579 -98.1594 899.616 -128.886 897.781C-159.612 895.947 -150.085 888.865 -212.72 930.087" stroke="#ED1C24" stroke-width="0.4"/>
<path d="M1635.02 894.375C1625.51 902.012 1595.39 916.751 1551.06 914.617C1495.64 911.95 1440.63 853.471 1369.82 878.486C1299.02 903.501 1306.38 970.277 1226.11 938.441C1145.84 906.605 1052.69 872.932 965.312 885.912C877.931 898.892 865.633 983.316 787.151 942.741C708.668 902.166 746.021 868.254 651.359 888.512C556.696 908.769 579.871 918.11 529.945 904.831C480.02 891.552 450.743 897.109 401.523 899.269C352.302 901.428 340.804 946.665 280.001 926.044C219.198 905.424 204.927 910.842 158.282 913.369C111.636 915.895 25.7597 991.551 -0.695277 966.404C-27.1502 941.256 -102.435 928.857 -131.5 931.611C-160.566 934.366 -151.764 941.473 -209.775 900.306" stroke="url(#paint0_linear_241_318)" stroke-width="0.4"/>
<path d="M-130.1 869.155C-74.1777 865.919 44.5532 872.144 72.0987 922.937C106.531 986.428 70.1956 873.817 191.515 906.086C312.834 938.355 401.393 939.034 408.497 912.327C415.6 885.62 464.353 867.132 505.971 891.547C547.59 915.961 571.06 904.093 643.559 918.929C716.057 933.764 819.905 868.925 865.934 906.904C911.962 944.884 1005.61 966.616 1018.01 920.028C1030.4 873.439 1086.32 852.094 1116.27 884.207C1146.22 916.321 1213.93 957.207 1225.61 913.289C1237.29 869.371 1185.58 864.83 1327.27 876.781C1468.96 888.733 1494.51 871.063 1532.66 890.424C1570.81 909.786 1664.05 969.221 1698.91 934.645" stroke="url(#paint1_linear_241_318)" stroke-width="0.4"/>
</g>
<defs>
<linearGradient id="paint0_linear_241_318" x1="1506.96" y1="1375.84" x2="1494.72" y2="416.33" gradientUnits="userSpaceOnUse">
<stop offset="0.276042" stop-color="#FF6EFF"/>
<stop offset="1" stop-color="#0AB7F6"/>
</linearGradient>
<linearGradient id="paint1_linear_241_318" x1="-25.0273" y1="474.122" x2="-47.0057" y2="1298.98" gradientUnits="userSpaceOnUse">
<stop offset="0.276042" stop-color="#FF6EFF"/>
<stop offset="1" stop-color="#0AB7F6"/>
</linearGradient>
</defs>
</svg>
